Alegreya Sans-Medium.ufo
<glyph name="quotedbl" format="1">
  <advance width="310"/>
  <unicode hex="0022"/>
  <outline>
    <contour>
      <point x="57" y="634" type="line"/>
      <point x="55" y="434" type="line"/>
      <point x="63" y="427" type="line"/>
      <point x="113" y="434" type="line"/>
      <point x="142" y="632" type="line"/>
      <point x="135" y="640" type="line"/>
    </contour>
    <contour>
      <point x="184" y="634" type="line"/>
      <point x="182" y="434" type="line"/>
      <point x="190" y="427" type="line"/>
      <point x="240" y="434" type="line"/>
      <point x="269" y="632" type="line"/>
      <point x="262" y="640" type="line"/>
    </contour>
  </outline>
</glyph>
<glyph name="ampersand" format="1">
  <advance width="701"/>
  <unicode hex="0026"/>
  <outline>
    <contour>
      <point x="169" y="648"/>
      <point x="99" y="586"/>
      <point x="99" y="489" type="curve" smooth="yes"/>
      <point x="99" y="428"/>
      <point x="126" y="378"/>
      <point x="188" y="325" type="curve" smooth="yes"/>
      <point x="599" y="-44" type="line"/>
      <point x="606" y="-45" type="line"/>
      <point x="627" y="-33"/>
      <point x="646" y="-17"/>
      <point x="662" y="1" type="curve"/>
      <point x="662" y="8" type="line"/>
      <point x="249" y="377" type="line" smooth="yes"/>
      <point x="202" y="416"/>
      <point x="188" y="446"/>
      <point x="188" y="483" type="curve" smooth="yes"/>
      <point x="188" y="542"/>
      <point x="224" y="576"/>
      <point x="295" y="576" type="curve"/>
      <point x="338" y="576"/>
      <point x="380" y="564"/>
      <point x="420" y="540" type="curve"/>
      <point x="434" y="540" type="line"/>
      <point x="458" y="615" type="line"/>
      <point x="408" y="638"/>
      <point x="354" y="648"/>
      <point x="298" y="648" type="curve"/>
    </contour>
    <contour>
      <point x="684" y="353" type="line"/>
      <point x="692" y="418" type="line"/>
      <point x="685" y="425" type="line"/>
      <point x="398" y="425" type="line"/>
      <point x="390" y="360" type="line"/>
      <point x="396" y="353" type="line"/>
      <point x="462" y="353" type="line"/>
      <point x="478" y="322"/>
      <point x="485" y="289"/>
      <point x="485" y="251" type="curve" smooth="yes"/>
      <point x="485" y="140"/>
      <point x="417" y="64"/>
      <point x="294" y="64" type="curve" smooth="yes"/>
      <point x="201" y="64"/>
      <point x="139" y="108"/>
      <point x="139" y="186" type="curve" smooth="yes"/>
      <point x="139" y="237"/>
      <point x="169" y="278"/>
      <point x="216" y="305" type="curve"/>
      <point x="168" y="373" type="line"/>
      <point x="167" y="338" type="line"/>
      <point x="93" y="301"/>
      <point x="52" y="246"/>
      <point x="52" y="170" type="curve" smooth="yes"/>
      <point x="52" y="59"/>
      <point x="146" y="-8"/>
      <point x="285" y="-8" type="curve" smooth="yes"/>
      <point x="454" y="-8"/>
      <point x="554" y="91"/>
      <point x="554" y="239" type="curve" smooth="yes"/>
      <point x="554" y="276"/>
      <point x="548" y="309"/>
      <point x="536" y="345" type="curve"/>
      <point x="538" y="353" type="line"/>
    </contour>
  </outline>
</glyph>
<glyph name="parenleft" format="1">
  <advance width="291"/>
  <unicode hex="0028"/>
  <outline>
    <contour>
      <point x="240" y="662" type="line"/>
      <point x="124" y="577"/>
      <point x="78" y="459"/>
      <point x="77" y="255" type="curve" smooth="yes"/>
      <point x="78" y="58"/>
      <point x="124" y="-56"/>
      <point x="240" y="-140" type="curve"/>
      <point x="249" y="-140" type="line"/>
      <point x="286" y="-108" type="line"/>
      <point x="286" y="-99" type="line"/>
      <point x="196" y="-24"/>
      <point x="160" y="78"/>
      <point x="159" y="256" type="curve" smooth="yes"/>
      <point x="160" y="440"/>
      <point x="196" y="545"/>
      <point x="286" y="620" type="curve"/>
      <point x="286" y="629" type="line"/>
      <point x="249" y="662" type="line"/>
    </contour>
  </outline>
</glyph>
<glyph name="comma" format="1">
  <advance width="229"/>
  <unicode hex="002C"/>
  <outline>
    <contour>
      <point x="107" y="99"/>
      <point x="83" y="87"/>
      <point x="61" y="73" type="curve"/>
      <point x="61" y="64" type="line"/>
      <point x="81" y="49"/>
      <point x="92" y="32"/>
      <point x="92" y="11" type="curve" smooth="yes"/>
      <point x="92" y="-21"/>
      <point x="73" y="-51"/>
      <point x="37" y="-81" type="curve"/>
      <point x="37" y="-89" type="line"/>
      <point x="71" y="-119" type="line"/>
      <point x="142" y="-68"/>
      <point x="176" y="-19"/>
      <point x="176" y="31" type="curve" smooth="yes"/>
      <point x="176" y="61"/>
      <point x="161" y="86"/>
      <point x="134" y="106" type="curve"/>
    </contour>
  </outline>
</glyph>
<glyph name="seven" format="1">
  <advance width="424"/>
  <unicode hex="0037"/>
  <outline>
    <contour>
      <point x="19" y="418" type="line"/>
      <point x="25" y="408" type="line"/>
      <point x="108" y="417" type="line"/>
      <point x="300" y="417" type="line"/>
      <point x="76" y="-62" type="line"/>
      <point x="83" y="-79" type="line"/>
      <point x="165" y="-101" type="line"/>
      <point x="214" y="30" type="line"/>
      <point x="396" y="428" type="line"/>
      <point x="395" y="503" type="line"/>
      <point x="350" y="501" type="line"/>
      <point x="125" y="501" type="line"/>
      <point x="26" y="505" type="line"/>
    </contour>
  </outline>
</glyph>
<glyph name="B" format="1">
  <advance width="554"/>
  <unicode hex="0042"/>
  <outline>
    <contour>
      <point x="87" y="642" type="line"/>
      <point x="141" y="562" type="line"/>
      <point x="184" y="563"/>
      <point x="224" y="563"/>
      <point x="258" y="563" type="curve" smooth="yes"/>
      <point x="344" y="563"/>
      <point x="376" y="537"/>
      <point x="376" y="473" type="curve" smooth="yes"/>
      <point x="376" y="410"/>
      <point x="347" y="377"/>
      <point x="290" y="363" type="curve"/>
      <point x="125" y="368" type="line"/>
      <point x="125" y="285" type="line"/>
      <point x="303" y="287" type="line"/>
      <point x="375" y="277"/>
      <point x="414" y="245"/>
      <point x="414" y="186" type="curve" smooth="yes"/>
      <point x="414" y="114"/>
      <point x="358" y="76"/>
      <point x="259" y="76" type="curve"/>
      <point x="230" y="76"/>
      <point x="180" y="79"/>
      <point x="147" y="84" type="curve"/>
      <point x="87" y="0" type="line"/>
      <point x="133" y="-3"/>
      <point x="216" y="-4"/>
      <point x="243" y="-4" type="curve" smooth="yes"/>
      <point x="425" y="-4"/>
      <point x="518" y="57"/>
      <point x="518" y="180" type="curve" smooth="yes"/>
      <point x="518" y="264"/>
      <point x="476" y="315"/>
      <point x="385" y="334" type="curve"/>
      <point x="447" y="360"/>
      <point x="482" y="413"/>
      <point x="482" y="485" type="curve" smooth="yes"/>
      <point x="482" y="589"/>
      <point x="409" y="643"/>
      <point x="286" y="643" type="curve" smooth="yes"/>
    </contour>
    <contour>
      <point x="86" y="642" type="line"/>
      <point x="93" y="193" type="line"/>
      <point x="86" y="0" type="line"/>
      <point x="189" y="0" type="line"/>
      <point x="185" y="202" type="line"/>
      <point x="191" y="642" type="line"/>
    </contour>
  </outline>
</glyph>
<glyph name="K" format="1">
  <advance width="562"/>
  <unicode hex="004B"/>
  <outline>
    <contour>
      <point x="433" y="642" type="line"/>
      <point x="395" y="584" type="line"/>
      <point x="194" y="341" type="line"/>
      <point x="194" y="335" type="line"/>
      <point x="275" y="218"/>
      <point x="363" y="106"/>
      <point x="453" y="-3" type="curve"/>
      <point x="465" y="-9" type="line"/>
      <point x="499" y="-5"/>
      <point x="531" y="1"/>
      <point x="565" y="10" type="curve"/>
      <point x="566" y="22" type="line"/>
      <point x="473" y="122"/>
      <point x="383" y="231"/>
      <point x="302" y="340" type="curve"/>
      <point x="548" y="642" type="line"/>
    </contour>
    <contour>
      <point x="85" y="642" type="line"/>
      <point x="92" y="193" type="line"/>
      <point x="85" y="0" type="line"/>
      <point x="189" y="0" type="line"/>
      <point x="185" y="202" type="line"/>
      <point x="191" y="642" type="line"/>
    </contour>
    <contour>
      <point x="292" y="0" type="move" name="bottom"/>
    </contour>
    <contour>
      <point x="282" y="642" type="move" name="top"/>
    </contour>
  </outline>
</glyph>
<glyph name="O" format="1">
  <advance width="639"/>
  <unicode hex="004F"/>
  <outline>
    <contour>
      <point x="140" y="650"/>
      <point x="34" y="530"/>
      <point x="34" y="315" type="curve" smooth="yes"/>
      <point x="34" y="109"/>
      <point x="133" y="-9"/>
      <point x="310" y="-9" type="curve" smooth="yes"/>
      <point x="499" y="-9"/>
      <point x="605" y="115"/>
      <point x="605" y="334" type="curve" smooth="yes"/>
      <point x="605" y="536"/>
      <point x="506" y="650"/>
      <point x="329" y="650" type="curve" smooth="yes"/>
    </contour>
    <contour>
      <point x="441" y="565"/>
      <point x="498" y="489"/>
      <point x="498" y="315" type="curve" smooth="yes"/>
      <point x="498" y="149"/>
      <point x="438" y="74"/>
      <point x="318" y="74" type="curve" smooth="yes"/>
      <point x="197" y="74"/>
      <point x="140" y="152"/>
      <point x="140" y="328" type="curve" smooth="yes"/>
      <point x="140" y="491"/>
      <point x="197" y="565"/>
      <point x="319" y="565" type="curve" smooth="yes"/>
    </contour>
    <contour>
      <point x="320" y="642" type="move" name="top"/>
    </contour>
  </outline>
</glyph>
<glyph name="P" format="1">
  <advance width="534"/>
  <unicode hex="0050"/>
  <outline>
    <contour>
      <point x="87" y="642" type="line"/>
      <point x="144" y="558" type="line"/>
      <point x="275" y="562" type="line"/>
      <point x="357" y="559"/>
      <point x="399" y="523"/>
      <point x="399" y="442" type="curve" smooth="yes"/>
      <point x="399" y="360"/>
      <point x="360" y="311"/>
      <point x="287" y="297" type="curve"/>
      <point x="125" y="301" type="line"/>
      <point x="125" y="217" type="line"/>
      <point x="257" y="217" type="line"/>
      <point x="412" y="217"/>
      <point x="505" y="307"/>
      <point x="505" y="451" type="curve" smooth="yes"/>
      <point x="505" y="575"/>
      <point x="433" y="643"/>
      <point x="304" y="643" type="curve"/>
    </contour>
    <contour>
      <point x="86" y="642" type="line"/>
      <point x="93" y="193" type="line"/>
      <point x="86" y="0" type="line"/>
      <point x="190" y="0" type="line"/>
      <point x="186" y="202" type="line"/>
      <point x="192" y="642" type="line"/>
    </contour>
  </outline>
</glyph>
<glyph name="Q" format="1">
  <advance width="643"/>
  <unicode hex="0051"/>
  <outline>
    <contour>
      <point x="140" y="650"/>
      <point x="34" y="530"/>
      <point x="34" y="315" type="curve" smooth="yes"/>
      <point x="34" y="109"/>
      <point x="133" y="-9"/>
      <point x="312" y="-9" type="curve" smooth="yes"/>
      <point x="499" y="-9"/>
      <point x="605" y="117"/>
      <point x="605" y="332" type="curve" smooth="yes"/>
      <point x="605" y="537"/>
      <point x="506" y="650"/>
      <point x="329" y="650" type="curve" smooth="yes"/>
    </contour>
    <contour>
      <point x="320" y="4" type="line"/>
      <point x="424" y="-88"/>
      <point x="548" y="-156"/>
      <point x="678" y="-196" type="curve"/>
      <point x="686" y="-192" type="line"/>
      <point x="706" y="-174"/>
      <point x="719" y="-156"/>
      <point x="734" y="-126" type="curve"/>
      <point x="730" y="-114" type="line"/>
      <point x="604" y="-89"/>
      <point x="491" y="-37"/>
      <point x="391" y="37" type="curve"/>
    </contour>
    <contour>
      <point x="440" y="565"/>
      <point x="498" y="489"/>
      <point x="498" y="318" type="curve" smooth="yes"/>
      <point x="498" y="150"/>
      <point x="437" y="74"/>
      <point x="319" y="74" type="curve" smooth="yes"/>
      <point x="198" y="74"/>
      <point x="140" y="152"/>
      <point x="140" y="325" type="curve" smooth="yes"/>
      <point x="140" y="491"/>
      <point x="197" y="565"/>
      <point x="318" y="565" type="curve" smooth="yes"/>
    </contour>
  </outline>
</glyph>
<glyph name="R" format="1">
  <advance width="570"/>
  <unicode hex="0052"/>
  <outline>
    <contour>
      <point x="87" y="642" type="line"/>
      <point x="144" y="558" type="line"/>
      <point x="275" y="562" type="line"/>
      <point x="357" y="559"/>
      <point x="399" y="524"/>
      <point x="399" y="448" type="curve" smooth="yes"/>
      <point x="399" y="375"/>
      <point x="364" y="330"/>
      <point x="298" y="310" type="curve"/>
      <point x="125" y="315" type="line"/>
      <point x="125" y="229" type="line"/>
      <point x="304" y="229" type="line"/>
      <point x="429" y="259"/>
      <point x="506" y="346"/>
      <point x="506" y="456" type="curve" smooth="yes"/>
      <point x="506" y="577"/>
      <point x="433" y="643"/>
      <point x="304" y="643" type="curve"/>
    </contour>
    <contour>
      <point x="86" y="642" type="line"/>
      <point x="93" y="193" type="line"/>
      <point x="86" y="0" type="line"/>
      <point x="190" y="0" type="line"/>
      <point x="186" y="202" type="line"/>
      <point x="192" y="642" type="line"/>
    </contour>
    <contour>
      <point x="268" y="282" type="line"/>
      <point x="316" y="186"/>
      <point x="372" y="91"/>
      <point x="429" y="-1" type="curve"/>
      <point x="442" y="-9" type="line"/>
      <point x="476" y="-6"/>
      <point x="508" y="1"/>
      <point x="540" y="12" type="curve"/>
      <point x="541" y="24" type="line"/>
      <point x="477" y="109"/>
      <point x="418" y="195"/>
      <point x="364" y="283" type="curve"/>
    </contour>
    <contour>
      <point x="285" y="0" type="move" name="bottom"/>
    </contour>
    <contour>
      <point x="285" y="642" type="move" name="top"/>
    </contour>
  </outline>
</glyph>
<glyph name="S" format="1">
  <advance width="483"/>
  <unicode hex="0053"/>
  <outline>
    <contour>
      <point x="144" y="649"/>
      <point x="54" y="567"/>
      <point x="54" y="462" type="curve" smooth="yes"/>
      <point x="54" y="274"/>
      <point x="342" y="291"/>
      <point x="342" y="166" type="curve" smooth="yes"/>
      <point x="342" y="119"/>
      <point x="301" y="73"/>
      <point x="229" y="73" type="curve" smooth="yes"/>
      <point x="182" y="73"/>
      <point x="116" y="94"/>
      <point x="64" y="143" type="curve"/>
      <point x="52" y="137" type="line"/>
      <point x="38" y="35" type="line"/>
      <point x="95" y="7"/>
      <point x="160" y="-8"/>
      <point x="218" y="-8" type="curve" smooth="yes"/>
      <point x="355" y="-8"/>
      <point x="444" y="78"/>
      <point x="444" y="182" type="curve" smooth="yes"/>
      <point x="444" y="369"/>
      <point x="156" y="358"/>
      <point x="156" y="476" type="curve" smooth="yes"/>
      <point x="156" y="520"/>
      <point x="194" y="566"/>
      <point x="262" y="566" type="curve" smooth="yes"/>
      <point x="304" y="566"/>
      <point x="352" y="548"/>
      <point x="394" y="517" type="curve"/>
      <point x="410" y="523" type="line"/>
      <point x="426" y="617" type="line"/>
      <point x="369" y="641"/>
      <point x="316" y="649"/>
      <point x="275" y="649" type="curve" smooth="yes"/>
    </contour>
    <contour>
      <point x="234" y="0" type="move" name="bottom"/>
    </contour>
    <contour>
      <point x="253" y="642" type="move" name="top"/>
    </contour>
  </outline>
</glyph>
<glyph name="V" format="1">
  <advance width="573"/>
  <unicode hex="0056"/>
  <outline>
    <contour>
      <point x="466" y="642" type="line"/>
      <point x="449" y="564" type="line"/>
      <point x="286" y="100" type="line"/>
      <point x="279" y="100" type="line"/>
      <point x="133" y="569" type="line"/>
      <point x="117" y="642" type="line"/>
      <point x="12" y="642" type="line"/>
      <point x="220" y="0" type="line"/>
      <point x="341" y="0" type="line"/>
      <point x="568" y="642" type="line"/>
    </contour>
  </outline>
</glyph>
<glyph name="W" format="1">
  <advance width="897"/>
  <unicode hex="0057"/>
  <outline>
    <contour>
      <point x="793" y="642" type="line"/>
      <point x="778" y="567" type="line"/>
      <point x="622" y="110" type="line"/>
      <point x="615" y="110" type="line"/>
      <point x="475" y="563" type="line"/>
      <point x="459" y="642" type="line"/>
      <point x="354" y="642" type="line"/>
      <point x="405" y="482" type="line"/>
      <point x="279" y="110" type="line"/>
      <point x="271" y="110" type="line"/>
      <point x="132" y="573" type="line"/>
      <point x="122" y="642" type="line"/>
      <point x="20" y="642" type="line"/>
      <point x="214" y="0" type="line"/>
      <point x="322" y="0" type="line"/>
      <point x="439" y="345" type="line"/>
      <point x="447" y="345" type="line"/>
      <point x="560" y="0" type="line"/>
      <point x="667" y="0" type="line"/>
      <point x="890" y="642" type="line"/>
    </contour>
    <contour>
      <point x="442" y="642" type="move" name="top"/>
    </contour>
  </outline>
</glyph>
<glyph name="Z" format="1">
  <advance width="536"/>
  <unicode hex="005A"/>
  <outline>
    <contour>
      <point x="442" y="642" type="line"/>
      <point x="168" y="642" type="line"/>
      <point x="48" y="643" type="line"/>
      <point x="40" y="558" type="line"/>
      <point x="45" y="552" type="line"/>
      <point x="148" y="560" type="line"/>
      <point x="375" y="560" type="line"/>
      <point x="31" y="72" type="line"/>
      <point x="31" y="-3" type="line"/>
      <point x="96" y="0" type="line"/>
      <point x="366" y="0" type="line"/>
      <point x="496" y="-2" type="line"/>
      <point x="504" y="83" type="line"/>
      <point x="500" y="89" type="line"/>
      <point x="398" y="81" type="line"/>
      <point x="154" y="81" type="line"/>
      <point x="497" y="567" type="line"/>
      <point x="497" y="643" type="line"/>
    </contour>
    <contour>
      <point x="272" y="642" type="move" name="top"/>
    </contour>
  </outline>
</glyph>
<glyph name="d" format="1">
  <advance width="520"/>
  <unicode hex="0064"/>
  <outline>
    <contour>
      <point x="338" y="694" type="line"/>
      <point x="340" y="461" type="line"/>
      <point x="313" y="466"/>
      <point x="287" y="469"/>
      <point x="262" y="469" type="curve" smooth="yes"/>
      <point x="121" y="469"/>
      <point x="35" y="383"/>
      <point x="35" y="229" type="curve" smooth="yes"/>
      <point x="35" y="81"/>
      <point x="107" y="-6"/>
      <point x="242" y="-6" type="curve"/>
      <point x="281" y="12"/>
      <point x="308" y="31"/>
      <point x="346" y="63" type="curve"/>
      <point x="353" y="63" type="line"/>
      <point x="361" y="24"/>
      <point x="386" y="-3"/>
      <point x="428" y="-7" type="curve"/>
      <point x="451" y="-4"/>
      <point x="473" y="4"/>
      <point x="491" y="15" type="curve"/>
      <point x="501" y="71" type="line"/>
      <point x="492" y="78" type="line"/>
      <point x="477" y="75"/>
      <point x="469" y="74"/>
      <point x="461" y="74" type="curve" smooth="yes"/>
      <point x="441" y="74"/>
      <point x="436" y="82"/>
      <point x="435" y="107" type="curve" smooth="yes"/>
      <point x="432" y="203" type="line"/>
      <point x="440" y="702" type="line"/>
    </contour>
    <contour>
      <point x="281" y="399"/>
      <point x="309" y="391"/>
      <point x="341" y="376" type="curve"/>
      <point x="344" y="194" type="line"/>
      <point x="342" y="129" type="line"/>
      <point x="306" y="89"/>
      <point x="275" y="77"/>
      <point x="244" y="77" type="curve" smooth="yes"/>
      <point x="174" y="77"/>
      <point x="132" y="134"/>
      <point x="131" y="241" type="curve" smooth="yes"/>
      <point x="129" y="348"/>
      <point x="177" y="399"/>
      <point x="252" y="399" type="curve" smooth="yes"/>
    </contour>
    <contour>
      <point x="260" y="231" type="move" name="center"/>
    </contour>
  </outline>
</glyph>
<glyph name="e" format="1">
  <advance width="460"/>
  <unicode hex="0065"/>
  <outline>
    <contour>
      <point x="124" y="469"/>
      <point x="37" y="378"/>
      <point x="37" y="228" type="curve" smooth="yes"/>
      <point x="37" y="82"/>
      <point x="117" y="-9"/>
      <point x="255" y="-9" type="curve" smooth="yes"/>
      <point x="303" y="-9"/>
      <point x="352" y="4"/>
      <point x="395" y="25" type="curve"/>
      <point x="408" y="106" type="line"/>
      <point x="398" y="112" type="line"/>
      <point x="354" y="85"/>
      <point x="304" y="70"/>
      <point x="263" y="70" type="curve" smooth="yes"/>
      <point x="173" y="70"/>
      <point x="131" y="130"/>
      <point x="131" y="233" type="curve" smooth="yes"/>
      <point x="131" y="339"/>
      <point x="177" y="399"/>
      <point x="252" y="399" type="curve" smooth="yes"/>
      <point x="302" y="399"/>
      <point x="335" y="370"/>
      <point x="335" y="305" type="curve"/>
      <point x="333" y="293" type="line"/>
      <point x="116" y="287" type="line"/>
      <point x="116" y="226" type="line"/>
      <point x="405" y="226" type="line"/>
      <point x="422" y="242" type="line"/>
      <point x="425" y="254"/>
      <point x="426" y="278"/>
      <point x="426" y="292" type="curve" smooth="yes"/>
      <point x="426" y="402"/>
      <point x="365" y="469"/>
      <point x="259" y="469" type="curve" smooth="yes"/>
    </contour>
    <contour>
      <point x="41" y="0" type="move" name="bottom"/>
    </contour>
    <contour>
      <point x="418" y="10" type="move" name="ogonek"/>
    </contour>
    <contour>
      <point x="248" y="461" type="move" name="top"/>
    </contour>
  </outline>
</glyph>
<glyph name="g" format="1">
  <advance width="492"/>
  <unicode hex="0067"/>
  <outline>
    <contour>
      <point x="128" y="171" type="line"/>
      <point x="101" y="154"/>
      <point x="80" y="133"/>
      <point x="63" y="110" type="curve"/>
      <point x="62" y="-35"/>
      <point x="361" y="45"/>
      <point x="361" y="-56" type="curve" smooth="yes"/>
      <point x="361" y="-99"/>
      <point x="310" y="-128"/>
      <point x="239" y="-128" type="curve" smooth="yes"/>
      <point x="172" y="-128"/>
      <point x="138" y="-101"/>
      <point x="138" y="-66" type="curve" smooth="yes"/>
      <point x="138" y="-37"/>
      <point x="163" y="-12"/>
      <point x="207" y="15" type="curve"/>
      <point x="137" y="33" type="line"/>
      <point x="137" y="21" type="line"/>
      <point x="103" y="-1"/>
      <point x="72" y="-25"/>
      <point x="51" y="-60" type="curve"/>
      <point x="51" y="-137"/>
      <point x="112" y="-194"/>
      <point x="228" y="-194" type="curve" smooth="yes"/>
      <point x="354" y="-194"/>
      <point x="449" y="-126"/>
      <point x="449" y="-37" type="curve" smooth="yes"/>
      <point x="449" y="116"/>
      <point x="154" y="53"/>
      <point x="154" y="124" type="curve" smooth="yes"/>
      <point x="154" y="136"/>
      <point x="161" y="146"/>
      <point x="183" y="163" type="curve"/>
      <point x="128" y="183" type="line"/>
    </contour>
    <contour>
      <point x="306" y="401"/>
      <point x="336" y="369"/>
      <point x="336" y="312" type="curve" smooth="yes"/>
      <point x="336" y="251"/>
      <point x="302" y="216"/>
      <point x="241" y="216" type="curve" smooth="yes"/>
      <point x="181" y="216"/>
      <point x="149" y="250"/>
      <point x="149" y="309" type="curve" smooth="yes"/>
      <point x="149" y="369"/>
      <point x="183" y="401"/>
      <point x="245" y="401" type="curve" smooth="yes"/>
    </contour>
    <contour>
      <point x="133" y="467"/>
      <point x="59" y="407"/>
      <point x="59" y="304" type="curve" smooth="yes"/>
      <point x="59" y="209"/>
      <point x="123" y="151"/>
      <point x="237" y="151" type="curve" smooth="yes"/>
      <point x="354" y="151"/>
      <point x="425" y="214"/>
      <point x="425" y="312" type="curve" smooth="yes"/>
      <point x="425" y="405"/>
      <point x="359" y="467"/>
      <point x="246" y="467" type="curve" smooth="yes"/>
    </contour>
    <contour>
      <point x="435" y="469"/>
      <point x="382" y="457"/>
      <point x="329" y="448" type="curve"/>
      <point x="401" y="374" type="line"/>
      <point x="409" y="393" type="line"/>
      <point x="439" y="398"/>
      <point x="468" y="403"/>
      <point x="495" y="412" type="curve"/>
      <point x="495" y="479" type="line"/>
      <point x="486" y="485" type="line"/>
    </contour>
    <contour>
      <point x="249" y="452" type="move" name="top"/>
    </contour>
  </outline>
</glyph>
<glyph name="l" format="1">
  <advance width="254"/>
  <unicode hex="006C"/>
  <outline>
    <contour>
      <point x="77" y="694" type="line"/>
      <point x="82" y="194" type="line"/>
      <point x="76" y="0" type="line"/>
      <point x="178" y="0" type="line"/>
      <point x="171" y="203" type="line"/>
      <point x="179" y="702" type="line"/>
    </contour>
    <contour>
      <point x="127" y="0" type="move" name="bottom"/>
    </contour>
    <contour>
      <point x="127" y="680" type="move" name="top"/>
    </contour>
    <contour>
      <point x="234" y="461" type="move" name="topright"/>
    </contour>
  </outline>
</glyph>
<glyph name="p" format="1">
  <advance width="510"/>
  <unicode hex="0070"/>
  <outline>
    <contour>
      <point x="249" y="452"/>
      <point x="218" y="434"/>
      <point x="175" y="397" type="curve"/>
      <point x="157" y="397" type="line"/>
      <point x="157" y="314" type="line"/>
      <point x="203" y="363"/>
      <point x="239" y="384"/>
      <point x="278" y="384" type="curve" smooth="yes"/>
      <point x="342" y="384"/>
      <point x="376" y="328"/>
      <point x="378" y="231" type="curve" smooth="yes"/>
      <point x="380" y="114"/>
      <point x="330" y="61"/>
      <point x="254" y="61" type="curve" smooth="yes"/>
      <point x="205" y="61"/>
      <point x="150" y="85"/>
      <point x="91" y="134" type="curve"/>
      <point x="88" y="22" type="line"/>
      <point x="141" y="2"/>
      <point x="197" y="-9"/>
      <point x="247" y="-9" type="curve" smooth="yes"/>
      <point x="390" y="-9"/>
      <point x="474" y="81"/>
      <point x="474" y="244" type="curve" smooth="yes"/>
      <point x="474" y="383"/>
      <point x="412" y="466"/>
      <point x="294" y="466" type="curve"/>
    </contour>
    <contour>
      <point x="71" y="454" type="line"/>
      <point x="77" y="193" type="line"/>
      <point x="71" y="-185" type="line"/>
      <point x="172" y="-185" type="line"/>
      <point x="166" y="202" type="line"/>
      <point x="169" y="463" type="line"/>
    </contour>
    <contour>
      <point x="168" y="19" type="line"/>
      <point x="167" y="384" type="line"/>
    </contour>
  </outline>
</glyph>
<glyph name="q" format="1">
  <advance width="510"/>
  <unicode hex="0071"/>
  <outline>
    <contour>
      <point x="340" y="461"/>
      <point x="300" y="469"/>
      <point x="259" y="469" type="curve" smooth="yes"/>
      <point x="122" y="469"/>
      <point x="35" y="385"/>
      <point x="35" y="226" type="curve" smooth="yes"/>
      <point x="35" y="82"/>
      <point x="106" y="-6"/>
      <point x="238" y="-6" type="curve"/>
      <point x="277" y="11"/>
      <point x="301" y="26"/>
      <point x="334" y="52" type="curve"/>
      <point x="343" y="52" type="line"/>
      <point x="343" y="31" type="line"/>
      <point x="338" y="-185" type="line"/>
      <point x="438" y="-185" type="line"/>
      <point x="432" y="202" type="line"/>
      <point x="440" y="462" type="line"/>
      <point x="430" y="468" type="line"/>
      <point x="379" y="450" type="line"/>
    </contour>
    <contour>
      <point x="281" y="398"/>
      <point x="308" y="390"/>
      <point x="341" y="373" type="curve"/>
      <point x="344" y="192" type="line"/>
      <point x="343" y="130" type="line"/>
      <point x="303" y="89"/>
      <point x="272" y="77"/>
      <point x="240" y="77" type="curve" smooth="yes"/>
      <point x="173" y="77"/>
      <point x="132" y="135"/>
      <point x="131" y="237" type="curve" smooth="yes"/>
      <point x="129" y="348"/>
      <point x="177" y="398"/>
      <point x="251" y="398" type="curve" smooth="yes"/>
    </contour>
  </outline>
</glyph>
<glyph name="s" format="1">
  <advance width="376"/>
  <unicode hex="0073"/>
  <outline>
    <contour>
      <point x="103" y="469"/>
      <point x="42" y="409"/>
      <point x="42" y="330" type="curve" smooth="yes"/>
      <point x="42" y="185"/>
      <point x="249" y="204"/>
      <point x="249" y="119" type="curve" smooth="yes"/>
      <point x="249" y="89"/>
      <point x="223" y="60"/>
      <point x="177" y="60" type="curve" smooth="yes"/>
      <point x="140" y="60"/>
      <point x="90" y="79"/>
      <point x="50" y="114" type="curve"/>
      <point x="39" y="107" type="line"/>
      <point x="27" y="22" type="line"/>
      <point x="73" y="2"/>
      <point x="123" y="-9"/>
      <point x="167" y="-9" type="curve" smooth="yes"/>
      <point x="282" y="-9"/>
      <point x="339" y="62"/>
      <point x="339" y="136" type="curve" smooth="yes"/>
      <point x="339" y="277"/>
      <point x="133" y="259"/>
      <point x="133" y="343" type="curve" smooth="yes"/>
      <point x="133" y="372"/>
      <point x="156" y="398"/>
      <point x="198" y="398" type="curve" smooth="yes"/>
      <point x="229" y="398"/>
      <point x="264" y="387"/>
      <point x="300" y="363" type="curve"/>
      <point x="313" y="366" type="line"/>
      <point x="327" y="446" type="line"/>
      <point x="290" y="461"/>
      <point x="248" y="469"/>
      <point x="210" y="469" type="curve" smooth="yes"/>
    </contour>
    <contour>
      <point x="179" y="0" type="move" name="bottom"/>
    </contour>
    <contour>
      <point x="188" y="461" type="move" name="top"/>
    </contour>
  </outline>
</glyph>
<glyph name="u" format="1">
  <advance width="515"/>
  <unicode hex="0075"/>
  <outline>
    <contour>
      <point x="340" y="454" type="line"/>
      <point x="340" y="129" type="line"/>
      <point x="305" y="96"/>
      <point x="267" y="78"/>
      <point x="231" y="78" type="curve" smooth="yes"/>
      <point x="184" y="78"/>
      <point x="161" y="108"/>
      <point x="162" y="157" type="curve" smooth="yes"/>
      <point x="167" y="463" type="line"/>
      <point x="66" y="454" type="line"/>
      <point x="70" y="254" type="line"/>
      <point x="68" y="129" type="line" smooth="yes"/>
      <point x="67" y="43"/>
      <point x="121" y="-6"/>
      <point x="222" y="-6" type="curve"/>
      <point x="262" y="5"/>
      <point x="302" y="28"/>
      <point x="342" y="64" type="curve"/>
      <point x="350" y="64" type="line"/>
      <point x="358" y="24"/>
      <point x="382" y="-3"/>
      <point x="424" y="-7" type="curve"/>
      <point x="448" y="-4"/>
      <point x="469" y="4"/>
      <point x="487" y="15" type="curve"/>
      <point x="497" y="71" type="line"/>
      <point x="488" y="78" type="line"/>
      <point x="474" y="75"/>
      <point x="465" y="74"/>
      <point x="457" y="74" type="curve" smooth="yes"/>
      <point x="437" y="74"/>
      <point x="430" y="82"/>
      <point x="430" y="107" type="curve"/>
      <point x="437" y="463" type="line"/>
    </contour>
    <contour>
      <point x="466" y="10" type="move" name="ogonek"/>
    </contour>
    <contour>
      <point x="257" y="461" type="move" name="top"/>
    </contour>
  </outline>
</glyph>
<glyph name="v" format="1">
  <advance width="433"/>
  <unicode hex="0076"/>
  <outline>
    <contour>
      <point x="18" y="459" type="line"/>
      <point x="156" y="0" type="line"/>
      <point x="265" y="0" type="line"/>
      <point x="428" y="461" type="line"/>
      <point x="338" y="461" type="line"/>
      <point x="322" y="391" type="line"/>
      <point x="219" y="98" type="line"/>
      <point x="212" y="98" type="line"/>
      <point x="126" y="396" type="line"/>
      <point x="113" y="464" type="line"/>
    </contour>
  </outline>
</glyph>
<glyph name="x" format="1">
  <advance width="446"/>
  <unicode hex="0078"/>
  <outline>
    <contour>
      <point x="20" y="458" type="line"/>
      <point x="162" y="233" type="line"/>
      <point x="20" y="0" type="line"/>
      <point x="112" y="0" type="line"/>
      <point x="133" y="42" type="line"/>
      <point x="217" y="176" type="line"/>
      <point x="302" y="47" type="line"/>
      <point x="325" y="-5" type="line"/>
      <point x="432" y="4" type="line"/>
      <point x="284" y="235" type="line"/>
      <point x="423" y="461" type="line"/>
      <point x="331" y="461" type="line"/>
      <point x="308" y="417" type="line"/>
      <point x="231" y="291" type="line"/>
      <point x="148" y="415" type="line"/>
      <point x="129" y="464" type="line"/>
    </contour>
  </outline>
</glyph>
<glyph name="z" format="1">
  <advance width="417"/>
  <unicode hex="007A"/>
  <outline>
    <contour>
      <point x="35" y="393" type="line"/>
      <point x="42" y="385" type="line"/>
      <point x="119" y="393" type="line"/>
      <point x="275" y="393" type="line"/>
      <point x="30" y="58" type="line"/>
      <point x="31" y="-2" type="line"/>
      <point x="84" y="0" type="line"/>
      <point x="277" y="0" type="line"/>
      <point x="380" y="-2" type="line"/>
      <point x="387" y="68" type="line"/>
      <point x="382" y="76" type="line"/>
      <point x="302" y="68" type="line"/>
      <point x="138" y="68" type="line"/>
      <point x="381" y="401" type="line"/>
      <point x="380" y="462" type="line"/>
      <point x="336" y="461" type="line"/>
      <point x="133" y="461" type="line"/>
      <point x="43" y="463" type="line"/>
    </contour>
    <contour>
      <point x="208" y="461" type="move" name="top"/>
    </contour>
  </outline>
</glyph>
<glyph name="braceleft" format="1">
  <advance width="291"/>
  <unicode hex="007B"/>
  <outline>
    <contour>
      <point x="139" y="656"/>
      <point x="97" y="616"/>
      <point x="97" y="541" type="curve" smooth="yes"/>
      <point x="97" y="483"/>
      <point x="117" y="416"/>
      <point x="117" y="372" type="curve" smooth="yes"/>
      <point x="117" y="328"/>
      <point x="93" y="300"/>
      <point x="41" y="289" type="curve"/>
      <point x="41" y="239" type="line"/>
      <point x="93" y="228"/>
      <point x="117" y="201"/>
      <point x="117" y="156" type="curve" smooth="yes"/>
      <point x="117" y="112"/>
      <point x="97" y="46"/>
      <point x="97" y="-12" type="curve" smooth="yes"/>
      <point x="97" y="-87"/>
      <point x="139" y="-127"/>
      <point x="220" y="-127" type="curve" smooth="yes"/>
      <point x="241" y="-127"/>
      <point x="259" y="-125"/>
      <point x="277" y="-119" type="curve"/>
      <point x="282" y="-111" type="line"/>
      <point x="273" y="-59" type="line"/>
      <point x="259" y="-62"/>
      <point x="249" y="-64"/>
      <point x="236" y="-64" type="curve" smooth="yes"/>
      <point x="197" y="-64"/>
      <point x="178" y="-41"/>
      <point x="178" y="6" type="curve" smooth="yes"/>
      <point x="178" y="53"/>
      <point x="199" y="115"/>
      <point x="199" y="160" type="curve" smooth="yes"/>
      <point x="199" y="206"/>
      <point x="176" y="243"/>
      <point x="132" y="262" type="curve"/>
      <point x="132" y="267" type="line"/>
      <point x="176" y="286"/>
      <point x="199" y="321"/>
      <point x="199" y="370" type="curve" smooth="yes"/>
      <point x="199" y="413"/>
      <point x="178" y="477"/>
      <point x="178" y="523" type="curve" smooth="yes"/>
      <point x="178" y="569"/>
      <point x="197" y="591"/>
      <point x="236" y="591" type="curve" smooth="yes"/>
      <point x="249" y="591"/>
      <point x="259" y="589"/>
      <point x="273" y="586" type="curve"/>
      <point x="282" y="640" type="line"/>
      <point x="277" y="648" type="line"/>
      <point x="259" y="652"/>
      <point x="241" y="656"/>
      <point x="220" y="656" type="curve" smooth="yes"/>
    </contour>
  </outline>
</glyph>
<glyph name="copyright" format="1">
  <advance width="686"/>
  <unicode hex="00A9"/>
  <outline>
    <contour>
      <point x="164" y="598"/>
      <point x="45" y="476"/>
      <point x="45" y="293" type="curve" smooth="yes"/>
      <point x="45" y="110"/>
      <point x="164" y="-12"/>
      <point x="342" y="-12" type="curve" smooth="yes"/>
      <point x="521" y="-12"/>
      <point x="640" y="110"/>
      <point x="640" y="293" type="curve" smooth="yes"/>
      <point x="640" y="476"/>
      <point x="521" y="598"/>
      <point x="342" y="598" type="curve" smooth="yes"/>
    </contour>
    <contour>
      <point x="253" y="465"/>
      <point x="194" y="403"/>
      <point x="194" y="294" type="curve" smooth="yes"/>
      <point x="194" y="186"/>
      <point x="248" y="126"/>
      <point x="354" y="126" type="curve" smooth="yes"/>
      <point x="382" y="126"/>
      <point x="413" y="133"/>
      <point x="440" y="145" type="curve"/>
      <point x="446" y="201" type="line"/>
      <point x="439" y="204" type="line"/>
      <point x="416" y="192"/>
      <point x="385" y="184"/>
      <point x="359" y="184" type="curve" smooth="yes"/>
      <point x="297" y="184"/>
      <point x="266" y="223"/>
      <point x="266" y="300" type="curve" smooth="yes"/>
      <point x="266" y="373"/>
      <point x="297" y="407"/>
      <point x="358" y="407" type="curve" smooth="yes"/>
      <point x="383" y="407"/>
      <point x="412" y="399"/>
      <point x="433" y="386" type="curve"/>
      <point x="438" y="389" type="line"/>
      <point x="452" y="445" type="line"/>
      <point x="424" y="457"/>
      <point x="393" y="465"/>
      <point x="360" y="465" type="curve" smooth="yes"/>
    </contour>
    <contour>
      <point x="496" y="559"/>
      <point x="600" y="453"/>
      <point x="600" y="293" type="curve" smooth="yes"/>
      <point x="600" y="133"/>
      <point x="496" y="27"/>
      <point x="342" y="27" type="curve" smooth="yes"/>
      <point x="187" y="27"/>
      <point x="84" y="133"/>
      <point x="84" y="293" type="curve" smooth="yes"/>
      <point x="84" y="453"/>
      <point x="187" y="559"/>
      <point x="342" y="559" type="curve" smooth="yes"/>
    </contour>
  </outline>
</glyph>
<glyph name="logicalnot" format="1">
  <advance width="480"/>
  <unicode hex="00AC"/>
  <outline>
    <contour>
      <point x="32" y="298" type="line"/>
      <point x="26" y="235" type="line"/>
      <point x="33" y="228" type="line"/>
      <point x="357" y="228" type="line"/>
      <point x="357" y="58" type="line"/>
      <point x="365" y="51" type="line"/>
      <point x="427" y="56" type="line"/>
      <point x="427" y="291" type="line"/>
      <point x="421" y="298" type="line"/>
    </contour>
  </outline>
</glyph>
<glyph name="softhyphen" format="1">
  <advance width="306"/>
  <unicode hex="00AD"/>
  <outline>
    <contour>
      <point x="28" y="273" type="line"/>
      <point x="28" y="209" type="line"/>
      <point x="37" y="200" type="line"/>
      <point x="277" y="236" type="line"/>
      <point x="277" y="300" type="line"/>
      <point x="268" y="308" type="line"/>
    </contour>
  </outline>
</glyph>
<glyph name="registered" format="1">
  <advance width="442"/>
  <unicode hex="00AE"/>
  <outline>
    <contour>
      <point x="112" y="702"/>
      <point x="38" y="629"/>
      <point x="38" y="519" type="curve" smooth="yes"/>
      <point x="38" y="409"/>
      <point x="112" y="335"/>
      <point x="222" y="335" type="curve" smooth="yes"/>
      <point x="332" y="335"/>
      <point x="405" y="409"/>
      <point x="405" y="519" type="curve" smooth="yes"/>
      <point x="405" y="629"/>
      <point x="332" y="702"/>
      <point x="222" y="702" type="curve" smooth="yes"/>
    </contour>
    <contour>
      <point x="153" y="623" type="line"/>
      <point x="154" y="486" type="line"/>
      <point x="153" y="428" type="line"/>
      <point x="194" y="428" type="line"/>
      <point x="192" y="491" type="line"/>
      <point x="195" y="623" type="line"/>
    </contour>
    <contour>
      <point x="214" y="514" type="line"/>
      <point x="229" y="485"/>
      <point x="245" y="456"/>
      <point x="264" y="428" type="curve"/>
      <point x="269" y="425" type="line"/>
      <point x="283" y="426"/>
      <point x="298" y="428"/>
      <point x="309" y="433" type="curve"/>
      <point x="310" y="437" type="line"/>
      <point x="289" y="462"/>
      <point x="270" y="488"/>
      <point x="253" y="514" type="curve"/>
    </contour>
    <contour>
      <point x="315" y="673"/>
      <point x="376" y="612"/>
      <point x="376" y="519" type="curve" smooth="yes"/>
      <point x="376" y="426"/>
      <point x="315" y="364"/>
      <point x="222" y="364" type="curve" smooth="yes"/>
      <point x="130" y="364"/>
      <point x="68" y="426"/>
      <point x="68" y="519" type="curve" smooth="yes"/>
      <point x="68" y="612"/>
      <point x="130" y="673"/>
      <point x="222" y="673" type="curve" smooth="yes"/>
    </contour>
    <contour>
      <point x="153" y="623" type="line"/>
      <point x="176" y="590" type="line"/>
      <point x="217" y="592" type="line"/>
      <point x="243" y="591"/>
      <point x="255" y="581"/>
      <point x="255" y="561" type="curve" smooth="yes"/>
      <point x="255" y="542"/>
      <point x="246" y="533"/>
      <point x="227" y="526" type="curve"/>
      <point x="168" y="529" type="line"/>
      <point x="168" y="495" type="line"/>
      <point x="228" y="495" type="line"/>
      <point x="271" y="503"/>
      <point x="297" y="531"/>
      <point x="297" y="564" type="curve" smooth="yes"/>
      <point x="297" y="602"/>
      <point x="274" y="623"/>
      <point x="231" y="623" type="curve"/>
    </contour>
  </outline>
</glyph>
<glyph name="acute" format="1">
  <advance width="389"/>
  <unicode hex="00B4"/>
  <outline>
    <contour>
      <point x="199" y="653"/>
      <point x="145" y="608"/>
      <point x="86" y="560" type="curve"/>
      <point x="112" y="520" type="line"/>
      <point x="122" y="519" type="line"/>
      <point x="183" y="558"/>
      <point x="240" y="597"/>
      <point x="303" y="643" type="curve"/>
      <point x="305" y="653" type="line"/>
      <point x="268" y="707" type="line"/>
      <point x="257" y="708" type="line"/>
    </contour>
    <contour>
      <point x="169" y="461" type="move" name="_top"/>
    </contour>
  </outline>
</glyph>
<glyph name="Oslash" format="1">
  <advance width="639"/>
  <unicode hex="00D8"/>
  <outline>
    <contour>
      <point x="469" y="729" type="line"/>
      <point x="91" y="-76" type="line"/>
      <point x="96" y="-85" type="line"/>
      <point x="155" y="-109" type="line"/>
      <point x="534" y="695" type="line"/>
      <point x="527" y="706" type="line"/>
    </contour>
    <component base="O"/>
    <contour>
      <point x="319" y="643" type="move" name="top"/>
    </contour>
  </outline>
</glyph>
<glyph name="Thorn" format="1">
  <advance width="540"/>
  <unicode hex="00DE"/>
  <outline>
    <contour>
      <point x="88" y="535" type="line"/>
      <point x="145" y="451" type="line"/>
      <point x="278" y="456" type="line"/>
      <point x="360" y="452"/>
      <point x="402" y="416"/>
      <point x="402" y="336" type="curve" smooth="yes"/>
      <point x="402" y="252"/>
      <point x="361" y="207"/>
      <point x="288" y="192" type="curve"/>
      <point x="125" y="197" type="line"/>
      <point x="125" y="110" type="line"/>
      <point x="260" y="113" type="line"/>
      <point x="421" y="113"/>
      <point x="510" y="197"/>
      <point x="510" y="343" type="curve" smooth="yes"/>
      <point x="510" y="470"/>
      <point x="437" y="536"/>
      <point x="307" y="536" type="curve"/>
    </contour>
    <contour>
      <point x="87" y="642" type="line"/>
      <point x="92" y="193" type="line"/>
      <point x="87" y="0" type="line"/>
      <point x="191" y="0" type="line"/>
      <point x="187" y="202" type="line"/>
      <point x="192" y="642" type="line"/>
    </contour>
  </outline>
</glyph>
<glyph name="germandbls" format="1">
  <advance width="582"/>
  <unicode hex="00DF"/>
  <outline>
    <contour>
      <point x="187" y="704"/>
      <point x="103" y="630"/>
      <point x="103" y="498" type="curve" smooth="yes"/>
      <point x="106" y="190" type="line"/>
      <point x="100" y="0" type="line"/>
      <point x="202" y="0" type="line"/>
      <point x="195" y="201" type="line"/>
      <point x="200" y="510" type="line" smooth="yes"/>
      <point x="201" y="592"/>
      <point x="243" y="631"/>
      <point x="311" y="631" type="curve" smooth="yes"/>
      <point x="367" y="631"/>
      <point x="401" y="605"/>
      <point x="401" y="556" type="curve" smooth="yes"/>
      <point x="401" y="466"/>
      <point x="289" y="461"/>
      <point x="289" y="354" type="curve" smooth="yes"/>
      <point x="289" y="211"/>
      <point x="486" y="204"/>
      <point x="486" y="119" type="curve" smooth="yes"/>
      <point x="486" y="86"/>
      <point x="458" y="60"/>
      <point x="412" y="60" type="curve" smooth="yes"/>
      <point x="374" y="60"/>
      <point x="328" y="79"/>
      <point x="290" y="114" type="curve"/>
      <point x="280" y="107" type="line"/>
      <point x="267" y="22" type="line"/>
      <point x="311" y="2"/>
      <point x="360" y="-9"/>
      <point x="403" y="-9" type="curve" smooth="yes"/>
      <point x="517" y="-9"/>
      <point x="576" y="60"/>
      <point x="576" y="136" type="curve" smooth="yes"/>
      <point x="576" y="274"/>
      <point x="380" y="271"/>
      <point x="380" y="371" type="curve" smooth="yes"/>
      <point x="380" y="445"/>
      <point x="486" y="464"/>
      <point x="486" y="570" type="curve" smooth="yes"/>
      <point x="486" y="648"/>
      <point x="429" y="704"/>
      <point x="317" y="704" type="curve" smooth="yes"/>
    </contour>
    <contour>
      <point x="36" y="459" type="line"/>
      <point x="31" y="400" type="line"/>
      <point x="35" y="394" type="line"/>
      <point x="152" y="394" type="line"/>
      <point x="158" y="452" type="line"/>
      <point x="153" y="459" type="line"/>
    </contour>
  </outline>
</glyph>
<glyph name="thorn" format="1">
  <advance width="516"/>
  <unicode hex="00FE"/>
  <outline>
    <contour>
      <point x="253" y="451"/>
      <point x="222" y="433"/>
      <point x="180" y="397" type="curve"/>
      <point x="162" y="397" type="line"/>
      <point x="162" y="314" type="line"/>
      <point x="208" y="363"/>
      <point x="245" y="384"/>
      <point x="283" y="384" type="curve" smooth="yes"/>
      <point x="347" y="384"/>
      <point x="381" y="328"/>
      <point x="383" y="232" type="curve" smooth="yes"/>
      <point x="385" y="114"/>
      <point x="335" y="61"/>
      <point x="259" y="61" type="curve" smooth="yes"/>
      <point x="210" y="61"/>
      <point x="155" y="90"/>
      <point x="96" y="151" type="curve"/>
      <point x="93" y="47" type="line"/>
      <point x="144" y="13"/>
      <point x="200" y="-9"/>
      <point x="255" y="-9" type="curve"/>
      <point x="394" y="-9"/>
      <point x="479" y="81"/>
      <point x="479" y="245" type="curve" smooth="yes"/>
      <point x="479" y="383"/>
      <point x="417" y="466"/>
      <point x="299" y="466" type="curve"/>
    </contour>
    <contour>
      <point x="76" y="694" type="line"/>
      <point x="82" y="193" type="line"/>
      <point x="76" y="-185" type="line"/>
      <point x="176" y="-185" type="line"/>
      <point x="171" y="203" type="line"/>
      <point x="178" y="702" type="line"/>
    </contour>
  </outline>
</glyph>
<glyph name="aogonek" format="1">
  <advance width="470"/>
  <unicode hex="0105"/>
  <outline>
    <contour>
      <point x="375" y="20" type="line"/>
      <point x="302" y="-54"/>
      <point x="282" y="-84"/>
      <point x="282" y="-120" type="curve" smooth="yes"/>
      <point x="282" y="-167"/>
      <point x="316" y="-197"/>
      <point x="360" y="-197" type="curve" smooth="yes"/>
      <point x="396" y="-197"/>
      <point x="424" y="-178"/>
      <point x="452" y="-149" type="curve"/>
      <point x="439" y="-101" type="line"/>
      <point x="434" y="-101" type="line"/>
      <point x="415" y="-123"/>
      <point x="395" y="-133"/>
      <point x="376" y="-133" type="curve" smooth="yes"/>
      <point x="358" y="-133"/>
      <point x="345" y="-124"/>
      <point x="345" y="-104" type="curve" smooth="yes"/>
      <point x="345" y="-83"/>
      <point x="361" y="-59"/>
      <point x="432" y="15" type="curve"/>
    </contour>
    <component base="a"/>
  </outline>
</glyph>
<glyph name="Hbar" format="1">
  <advance width="720"/>
  <unicode hex="0126"/>
  <outline>
    <contour>
      <point x="39" y="542" type="line"/>
      <point x="35" y="482" type="line"/>
      <point x="40" y="476" type="line"/>
      <point x="683" y="476" type="line"/>
      <point x="687" y="536" type="line"/>
      <point x="681" y="542" type="line"/>
    </contour>
    <component base="H" xOffset="14"/>
  </outline>
</glyph>
<glyph name="dotlessi" format="1">
  <advance width="245"/>
  <unicode hex="0131"/>
  <outline>
    <contour>
      <point x="72" y="454" type="line"/>
      <point x="77" y="193" type="line"/>
      <point x="71" y="0" type="line"/>
      <point x="173" y="0" type="line"/>
      <point x="166" y="202" type="line"/>
      <point x="174" y="463" type="line"/>
    </contour>
    <contour>
      <point x="193" y="31" type="move" name="ogonek"/>
    </contour>
    <contour>
      <point x="124" y="461" type="move" name="top"/>
    </contour>
  </outline>
</glyph>
<glyph name="ldot" format="1">
  <advance width="334"/>
  <unicode hex="0140"/>
  <outline>
    <contour>
      <point x="176" y="-78" type="move"/>
    </contour>
    <component base="l"/>
    <component base="periodcentered" xOffset="168" yOffset="37"/>
  </outline>
</glyph>
<glyph name="Lslash" format="1">
  <advance width="437"/>
  <unicode hex="0141"/>
  <outline>
    <contour>
      <point x="6" y="303" type="line"/>
      <point x="25" y="242" type="line"/>
      <point x="36" y="236" type="line"/>
      <point x="349" y="400" type="line"/>
      <point x="330" y="461" type="line"/>
      <point x="319" y="466" type="line"/>
    </contour>
    <component base="L" xOffset="15"/>
  </outline>
</glyph>
<glyph name="lslash" format="1">
  <advance width="272"/>
  <unicode hex="0142"/>
  <outline>
    <contour>
      <point x="139" y="412" type="line"/>
      <point x="129" y="413" type="line"/>
      <point x="3" y="348" type="line"/>
      <point x="24" y="285" type="line"/>
      <point x="30" y="282" type="line"/>
      <point x="140" y="339" type="line"/>
      <point x="149" y="338" type="line"/>
      <point x="269" y="402" type="line"/>
      <point x="249" y="464" type="line"/>
      <point x="243" y="466" type="line"/>
    </contour>
    <component base="l" xOffset="9"/>
  </outline>
</glyph>
<glyph name="Tbar" format="1">
  <advance width="495"/>
  <unicode hex="0166"/>
  <outline>
    <contour>
      <point x="106" y="343" type="line"/>
      <point x="102" y="290" type="line"/>
      <point x="109" y="283" type="line"/>
      <point x="404" y="283" type="line"/>
      <point x="408" y="336" type="line"/>
      <point x="400" y="343" type="line"/>
    </contour>
    <component base="T"/>
  </outline>
</glyph>
<glyph name="tbar" format="1">
  <advance width="331"/>
  <unicode hex="0167"/>
  <outline>
    <contour>
      <point x="27" y="293" type="line"/>
      <point x="23" y="240" type="line"/>
      <point x="30" y="233" type="line"/>
      <point x="301" y="233" type="line"/>
      <point x="306" y="286" type="line"/>
      <point x="298" y="293" type="line"/>
    </contour>
    <component base="t" xOffset="2"/>
  </outline>
</glyph>
<glyph name="Uogonek" format="1">
  <advance width="631"/>
  <unicode hex="0172"/>
  <outline>
    <contour>
      <point x="435" y="62" type="line"/>
      <point x="366" y="-43" type="line" smooth="yes"/>
      <point x="349" y="-68"/>
      <point x="342" y="-91"/>
      <point x="342" y="-114" type="curve" smooth="yes"/>
      <point x="342" y="-162"/>
      <point x="374" y="-197"/>
      <point x="425" y="-197" type="curve" smooth="yes"/>
      <point x="461" y="-197"/>
      <point x="493" y="-179"/>
      <point x="526" y="-145" type="curve"/>
      <point x="514" y="-100" type="line"/>
      <point x="509" y="-100" type="line"/>
      <point x="486" y="-123"/>
      <point x="461" y="-135"/>
      <point x="438" y="-135" type="curve" smooth="yes"/>
      <point x="413" y="-135"/>
      <point x="402" y="-121"/>
      <point x="402" y="-102" type="curve" smooth="yes"/>
      <point x="402" y="-88"/>
      <point x="408" y="-69"/>
      <point x="419" y="-53" type="curve" smooth="yes"/>
      <point x="489" y="62" type="line"/>
    </contour>
    <component base="U"/>
  </outline>
</glyph>
<glyph name="uogonek" format="1">
  <advance width="515"/>
  <unicode hex="0173"/>
  <outline>
    <contour>
      <point x="427" y="20" type="line"/>
      <point x="354" y="-54"/>
      <point x="334" y="-84"/>
      <point x="334" y="-120" type="curve" smooth="yes"/>
      <point x="334" y="-167"/>
      <point x="368" y="-197"/>
      <point x="412" y="-197" type="curve" smooth="yes"/>
      <point x="448" y="-197"/>
      <point x="476" y="-178"/>
      <point x="504" y="-149" type="curve"/>
      <point x="491" y="-101" type="line"/>
      <point x="486" y="-101" type="line"/>
      <point x="467" y="-123"/>
      <point x="447" y="-133"/>
      <point x="428" y="-133" type="curve" smooth="yes"/>
      <point x="410" y="-133"/>
      <point x="397" y="-124"/>
      <point x="397" y="-104" type="curve" smooth="yes"/>
      <point x="397" y="-83"/>
      <point x="413" y="-59"/>
      <point x="484" y="15" type="curve"/>
    </contour>
    <component base="u"/>
  </outline>
</glyph>
<glyph name="dotlessj" format="1">
  <advance width="275"/>
  <unicode hex="0237"/>
  <outline>
    <contour>
      <point x="100" y="459" type="line"/>
      <point x="8" y="459" type="line"/>
      <point x="3" y="401" type="line"/>
      <point x="10" y="394" type="line"/>
      <point x="98" y="394" type="line"/>
      <point x="102" y="193" type="line"/>
      <point x="101" y="18" type="line" smooth="yes"/>
      <point x="101" y="-59"/>
      <point x="77" y="-100"/>
      <point x="9" y="-138" type="curve"/>
      <point x="9" y="-149" type="line"/>
      <point x="46" y="-194" type="line"/>
      <point x="154" y="-142"/>
      <point x="196" y="-83"/>
      <point x="196" y="22" type="curve"/>
      <point x="191" y="202" type="line"/>
      <point x="198" y="461" type="line"/>
      <point x="195" y="463" type="line"/>
    </contour>
    <contour>
      <point x="132" y="461" type="move" name="top"/>
    </contour>
  </outline>
</glyph>
<glyph name="ogonek" format="1">
  <advance width="389"/>
  <unicode hex="02DB"/>
  <outline>
    <contour>
      <point x="194" y="54" type="line"/>
      <point x="131" y="-36" type="line" smooth="yes"/>
      <point x="112" y="-63"/>
      <point x="104" y="-89"/>
      <point x="104" y="-114" type="curve" smooth="yes"/>
      <point x="104" y="-162"/>
      <point x="137" y="-197"/>
      <point x="188" y="-197" type="curve" smooth="yes"/>
      <point x="224" y="-197"/>
      <point x="254" y="-180"/>
      <point x="288" y="-146" type="curve"/>
      <point x="277" y="-99" type="line"/>
      <point x="272" y="-99" type="line"/>
      <point x="250" y="-121"/>
      <point x="226" y="-134"/>
      <point x="205" y="-134" type="curve" smooth="yes"/>
      <point x="179" y="-134"/>
      <point x="166" y="-117"/>
      <point x="166" y="-95" type="curve" smooth="yes"/>
      <point x="166" y="-80"/>
      <point x="172" y="-64"/>
      <point x="183" y="-47" type="curve" smooth="yes"/>
      <point x="249" y="54" type="line"/>
    </contour>
    <contour>
      <point x="289" y="10" type="move" name="_ogonek"/>
    </contour>
  </outline>
</glyph>
<glyph name="commaaccentcomb" format="1">
  <advance width="238"/>
  <unicode hex="0326"/>
  <outline>
    <component base="comma" xOffset="8" yOffset="-146" xScale="0.92" yScale="0.92"/>
    <contour>
      <point x="105" y="0" type="move" name="_bottom"/>
    </contour>
  </outline>
</glyph>
<glyph name="ydotbelow" format="1">
  <advance width="445"/>
  <unicode hex="1EF5"/>
  <outline>
    <contour>
      <point x="249" y="329" type="move"/>
    </contour>
    <component base="y"/>
    <component base="dotbelowcomb" xOffset="216" yOffset="5" xScale="0.96" yScale="0.96"/>
  </outline>
</glyph>
<glyph name="daggerdbl" format="1">
  <advance width="490"/>
  <unicode hex="2021"/>
  <outline>
    <contour>
      <point x="208" y="585" type="line"/>
      <point x="208" y="282" type="line"/>
      <point x="208" y="-86" type="line"/>
      <point x="215" y="-94" type="line"/>
      <point x="279" y="-90" type="line"/>
      <point x="279" y="288" type="line"/>
      <point x="280" y="585" type="line"/>
      <point x="274" y="590" type="line"/>
    </contour>
    <contour>
      <point x="47" y="147" type="line"/>
      <point x="41" y="85" type="line"/>
      <point x="48" y="77" type="line"/>
      <point x="444" y="77" type="line"/>
      <point x="450" y="140" type="line"/>
      <point x="442" y="147" type="line"/>
    </contour>
    <contour>
      <point x="47" y="414" type="line"/>
      <point x="41" y="353" type="line"/>
      <point x="48" y="345" type="line"/>
      <point x="444" y="345" type="line"/>
      <point x="450" y="407" type="line"/>
      <point x="442" y="414" type="line"/>
    </contour>
  </outline>
</glyph>
<glyph name="guilsinglright" format="1">
  <advance width="240"/>
  <unicode hex="203A"/>
  <outline>
    <contour>
      <point x="27" y="384" type="line"/>
      <point x="26" y="373" type="line"/>
      <point x="142" y="228" type="line"/>
      <point x="26" y="83" type="line"/>
      <point x="27" y="72" type="line"/>
      <point x="76" y="45" type="line"/>
      <point x="217" y="220" type="line"/>
      <point x="217" y="239" type="line"/>
      <point x="76" y="411" type="line"/>
    </contour>
  </outline>
</glyph>
<glyph name="trademark" format="1">
  <advance width="585"/>
  <unicode hex="2122"/>
  <outline>
    <contour>
      <point x="448" y="641" type="line"/>
      <point x="437" y="605" type="line"/>
      <point x="394" y="499" type="line"/>
      <point x="391" y="499" type="line"/>
      <point x="351" y="606" type="line"/>
      <point x="341" y="641" type="line"/>
      <point x="278" y="641" type="line"/>
      <point x="252" y="405" type="line"/>
      <point x="298" y="405" type="line"/>
      <point x="303" y="482" type="line"/>
      <point x="313" y="561" type="line"/>
      <point x="317" y="561" type="line"/>
      <point x="369" y="429" type="line"/>
      <point x="411" y="429" type="line"/>
      <point x="467" y="561" type="line"/>
      <point x="472" y="561" type="line"/>
      <point x="480" y="476" type="line"/>
      <point x="485" y="405" type="line"/>
      <point x="532" y="405" type="line"/>
      <point x="510" y="641" type="line"/>
    </contour>
    <contour>
      <point x="95" y="634" type="line"/>
      <point x="96" y="475" type="line"/>
      <point x="94" y="405" type="line"/>
      <point x="147" y="405" type="line"/>
      <point x="145" y="480" type="line"/>
      <point x="147" y="634" type="line"/>
    </contour>
    <contour>
      <point x="29" y="641" type="line"/>
      <point x="26" y="602" type="line"/>
      <point x="29" y="597" type="line"/>
      <point x="79" y="599" type="line"/>
      <point x="164" y="599" type="line"/>
      <point x="211" y="597" type="line"/>
      <point x="215" y="636" type="line"/>
      <point x="211" y="641" type="line"/>
    </contour>
  </outline>
</glyph>
<glyph name="arrowdown" format="1">
  <advance width="523"/>
  <unicode hex="2193"/>
  <outline>
    <contour>
      <point x="441" y="246" type="line"/>
      <point x="262" y="74" type="line"/>
      <point x="83" y="246" type="line"/>
      <point x="68" y="246" type="line"/>
      <point x="54" y="190" type="line"/>
      <point x="255" y="-5" type="line"/>
      <point x="270" y="-5" type="line"/>
      <point x="470" y="190" type="line"/>
      <point x="455" y="246" type="line"/>
    </contour>
    <contour>
      <point x="225" y="461" type="line"/>
      <point x="230" y="54" type="line"/>
      <point x="292" y="54" type="line"/>
      <point x="297" y="464" type="line"/>
      <point x="232" y="468" type="line"/>
    </contour>
  </outline>
</glyph>
<glyph name="partialdiff" format="1">
  <advance width="515"/>
  <unicode hex="2202"/>
  <outline>
    <contour>
      <point x="129" y="717" type="line"/>
      <point x="59" y="666" type="line"/>
      <point x="59" y="655" type="line"/>
      <point x="275" y="582"/>
      <point x="383" y="456"/>
      <point x="383" y="256" type="curve" smooth="yes"/>
      <point x="383" y="130"/>
      <point x="338" y="64"/>
      <point x="251" y="64" type="curve" smooth="yes"/>
      <point x="171" y="64"/>
      <point x="128" y="115"/>
      <point x="128" y="209" type="curve" smooth="yes"/>
      <point x="128" y="302"/>
      <point x="172" y="349"/>
      <point x="255" y="349" type="curve" smooth="yes"/>
      <point x="299" y="349"/>
      <point x="345" y="328"/>
      <point x="391" y="288" type="curve"/>
      <point x="375" y="405" type="line"/>
      <point x="353" y="386" type="line"/>
      <point x="317" y="410"/>
      <point x="275" y="426"/>
      <point x="234" y="428" type="curve" smooth="yes"/>
      <point x="105" y="428"/>
      <point x="33" y="335"/>
      <point x="33" y="210" type="curve" smooth="yes"/>
      <point x="33" y="83"/>
      <point x="105" y="-9"/>
      <point x="249" y="-9" type="curve" smooth="yes"/>
      <point x="396" y="-9"/>
      <point x="479" y="93"/>
      <point x="479" y="262" type="curve" smooth="yes"/>
      <point x="479" y="472"/>
      <point x="354" y="624"/>
      <point x="138" y="717" type="curve"/>
    </contour>
  </outline>
</glyph>
<glyph name="product" format="1">
  <advance width="677"/>
  <unicode hex="220F"/>
  <outline>
    <contour>
      <point x="54" y="642" type="line"/>
      <point x="46" y="566" type="line"/>
      <point x="53" y="557" type="line"/>
      <point x="171" y="560" type="line"/>
      <point x="509" y="560" type="line"/>
      <point x="624" y="557" type="line"/>
      <point x="631" y="633" type="line"/>
      <point x="625" y="642" type="line"/>
    </contour>
    <component base="I" xOffset="16"/>
    <component base="I" xOffset="381"/>
  </outline>
</glyph>
<glyph name="lozenge" format="1">
  <advance width="504"/>
  <unicode hex="25CA"/>
  <outline>
    <contour>
      <point x="207" y="641" type="line"/>
      <point x="50" y="294" type="line"/>
      <point x="50" y="265" type="line"/>
      <point x="208" y="-79" type="line"/>
      <point x="216" y="-84" type="line"/>
      <point x="293" y="-81" type="line"/>
      <point x="451" y="266" type="line"/>
      <point x="451" y="297" type="line"/>
      <point x="292" y="641" type="line"/>
      <point x="285" y="645" type="line"/>
    </contour>
    <contour>
      <point x="383" y="281" type="line"/>
      <point x="255" y="-5" type="line"/>
      <point x="250" y="-5" type="line"/>
      <point x="118" y="277" type="line"/>
      <point x="246" y="567" type="line"/>
      <point x="251" y="567" type="line"/>
    </contour>
  </outline>
</glyph>
<glyph name="fi" format="1">
  <advance width="571"/>
  <unicode hex="FB01"/>
  <outline>
    <contour>
      <point x="168" y="704"/>
      <point x="104" y="643"/>
      <point x="104" y="510" type="curve" smooth="yes"/>
      <point x="105" y="459" type="line"/>
      <point x="37" y="459" type="line"/>
      <point x="32" y="400" type="line"/>
      <point x="36" y="394" type="line"/>
      <point x="106" y="394" type="line"/>
      <point x="107" y="194" type="line"/>
      <point x="101" y="0" type="line"/>
      <point x="203" y="0" type="line"/>
      <point x="196" y="203" type="line"/>
      <point x="199" y="394" type="line"/>
      <point x="407" y="394" type="line"/>
      <point x="411" y="193" type="line"/>
      <point x="404" y="0" type="line"/>
      <point x="506" y="0" type="line"/>
      <point x="500" y="202" type="line"/>
      <point x="507" y="463" type="line"/>
      <point x="500" y="467" type="line"/>
      <point x="442" y="459" type="line"/>
      <point x="200" y="459" type="line"/>
      <point x="201" y="530" type="line"/>
      <point x="202" y="600"/>
      <point x="231" y="631"/>
      <point x="295" y="631" type="curve" smooth="yes"/>
      <point x="333" y="631"/>
      <point x="369" y="620"/>
      <point x="414" y="599" type="curve"/>
      <point x="425" y="603" type="line"/>
      <point x="438" y="685" type="line"/>
      <point x="389" y="698"/>
      <point x="351" y="704"/>
      <point x="306" y="704" type="curve" smooth="yes"/>
    </contour>
  </outline>
</glyph>
<glyph name="C.ss01" format="1">
  <advance width="458"/>
  <outline>
    <contour>
      <point x="-100" y="461" type="line"/>
      <point x="558" y="461" type="line"/>
      <point x="558" y="501" type="line"/>
      <point x="-100" y="501" type="line"/>
    </contour>
    <contour>
      <point x="-100" y="0" type="line"/>
      <point x="558" y="0" type="line"/>
      <point x="558" y="40" type="line"/>
      <point x="-100" y="40" type="line"/>
    </contour>
    <contour>
      <point x="133" y="499"/>
      <point x="46" y="409"/>
      <point x="46" y="248" type="curve" smooth="yes"/>
      <point x="46" y="89"/>
      <point x="127" y="2"/>
      <point x="275" y="2" type="curve" smooth="yes"/>
      <point x="325" y="2"/>
      <point x="367" y="12"/>
      <point x="409" y="32" type="curve"/>
      <point x="416" y="114" type="line"/>
      <point x="407" y="119" type="line"/>
      <point x="371" y="95"/>
      <point x="324" y="79"/>
      <point x="280" y="79" type="curve" smooth="yes"/>
      <point x="191" y="79"/>
      <point x="143" y="140"/>
      <point x="143" y="256" type="curve" smooth="yes"/>
      <point x="143" y="370"/>
      <point x="191" y="423"/>
      <point x="277" y="423" type="curve" smooth="yes"/>
      <point x="323" y="423"/>
      <point x="367" y="407"/>
      <point x="398" y="382" type="curve"/>
      <point x="407" y="386" type="line"/>
      <point x="423" y="468" type="line"/>
      <point x="385" y="488"/>
      <point x="338" y="499"/>
      <point x="285" y="499" type="curve" smooth="yes"/>
    </contour>
    <contour>
      <point x="265" y="9" type="move" name="bottom"/>
    </contour>
    <contour>
      <point x="265" y="493" type="move" name="top"/>
    </contour>
  </outline>
</glyph>
<glyph name="Q.corta" format="1">
  <advance width="643"/>
  <outline>
    <contour>
      <point x="140" y="650"/>
      <point x="34" y="530"/>
      <point x="34" y="315" type="curve" smooth="yes"/>
      <point x="34" y="109"/>
      <point x="133" y="-9"/>
      <point x="312" y="-9" type="curve" smooth="yes"/>
      <point x="499" y="-9"/>
      <point x="605" y="117"/>
      <point x="605" y="332" type="curve" smooth="yes"/>
      <point x="605" y="537"/>
      <point x="506" y="650"/>
      <point x="329" y="650" type="curve" smooth="yes"/>
    </contour>
    <contour>
      <point x="320" y="4" type="line"/>
      <point x="394" y="-71"/>
      <point x="484" y="-132"/>
      <point x="593" y="-189" type="curve"/>
      <point x="602" y="-185" type="line"/>
      <point x="621" y="-167"/>
      <point x="636" y="-143"/>
      <point x="650" y="-115" type="curve"/>
      <point x="647" y="-104" type="line"/>
      <point x="541" y="-65"/>
      <point x="460" y="-19"/>
      <point x="393" y="38" type="curve"/>
    </contour>
    <contour>
      <point x="440" y="565"/>
      <point x="498" y="489"/>
      <point x="498" y="319" type="curve" smooth="yes"/>
      <point x="498" y="150"/>
      <point x="438" y="74"/>
      <point x="319" y="74" type="curve" smooth="yes"/>
      <point x="198" y="74"/>
      <point x="140" y="152"/>
      <point x="140" y="325" type="curve" smooth="yes"/>
      <point x="140" y="491"/>
      <point x="197" y="565"/>
      <point x="318" y="565" type="curve" smooth="yes"/>
    </contour>
  </outline>
</glyph>
<glyph name="V.ss01" format="1">
  <advance width="508"/>
  <outline>
    <contour>
      <point x="-100" y="461" type="line"/>
      <point x="608" y="461" type="line"/>
      <point x="608" y="501" type="line"/>
      <point x="-100" y="501" type="line"/>
    </contour>
    <contour>
      <point x="-100" y="0" type="line"/>
      <point x="608" y="0" type="line"/>
      <point x="608" y="40" type="line"/>
      <point x="-100" y="40" type="line"/>
    </contour>
    <contour>
      <point x="393" y="494" type="line"/>
      <point x="380" y="428" type="line"/>
      <point x="256" y="95" type="line"/>
      <point x="250" y="95" type="line"/>
      <point x="139" y="433" type="line"/>
      <point x="126" y="494" type="line"/>
      <point x="31" y="494" type="line"/>
      <point x="195" y="7" type="line"/>
      <point x="306" y="7" type="line"/>
      <point x="485" y="494" type="line"/>
    </contour>
  </outline>
</glyph>
<glyph name="breve.cap" format="1">
  <advance width="389"/>
  <outline>
    <contour>
      <point x="290" y="672" type="line"/>
      <point x="274" y="635"/>
      <point x="241" y="614"/>
      <point x="196" y="614" type="curve" smooth="yes"/>
      <point x="148" y="614"/>
      <point x="114" y="635"/>
      <point x="99" y="672" type="curve"/>
      <point x="84" y="672" type="line"/>
      <point x="58" y="639" type="line"/>
      <point x="78" y="577"/>
      <point x="126" y="542"/>
      <point x="192" y="542" type="curve" smooth="yes"/>
      <point x="259" y="542"/>
      <point x="308" y="577"/>
      <point x="331" y="639" type="curve" smooth="yes"/>
      <point x="305" y="672" type="line"/>
    </contour>
    <contour>
      <point x="195" y="461" type="move" name="_top"/>
    </contour>
  </outline>
</glyph>
<glyph name="c.sups" format="1">
  <advance width="261"/>
  <outline>
    <contour>
      <point x="83" y="650"/>
      <point x="28" y="589"/>
      <point x="28" y="485" type="curve" smooth="yes"/>
      <point x="28" y="387"/>
      <point x="77" y="328"/>
      <point x="160" y="328" type="curve" smooth="yes"/>
      <point x="190" y="328"/>
      <point x="219" y="335"/>
      <point x="245" y="344" type="curve"/>
      <point x="254" y="409" type="line"/>
      <point x="247" y="413" type="line"/>
      <point x="223" y="403"/>
      <point x="200" y="397"/>
      <point x="179" y="397" type="curve" smooth="yes"/>
      <point x="134" y="397"/>
      <point x="109" y="430"/>
      <point x="109" y="493" type="curve" smooth="yes"/>
      <point x="109" y="549"/>
      <point x="133" y="580"/>
      <point x="174" y="580" type="curve" smooth="yes"/>
      <point x="195" y="580"/>
      <point x="215" y="572"/>
      <point x="235" y="560" type="curve"/>
      <point x="242" y="564" type="line"/>
      <point x="258" y="630" type="line"/>
      <point x="235" y="641"/>
      <point x="205" y="650"/>
      <point x="174" y="650" type="curve" smooth="yes"/>
    </contour>
    <contour>
      <point x="165" y="0" type="move" name="bottom"/>
    </contour>
    <contour>
      <point x="175" y="307" type="move" name="top"/>
    </contour>
  </outline>
</glyph>
<glyph name="down" format="1">
  <advance width="415"/>
  <outline>
    <contour>
      <point x="63" y="362" type="line"/>
      <point x="207" y="73" type="line"/>
      <point x="352" y="362" type="line"/>
    </contour>
  </outline>
</glyph>
<glyph name="eight.sinf" format="1">
  <advance width="349"/>
  <outline>
    <contour>
      <point x="104" y="267"/>
      <point x="51" y="227"/>
      <point x="51" y="160" type="curve" smooth="yes"/>
      <point x="51" y="112"/>
      <point x="80" y="87"/>
      <point x="115" y="69" type="curve"/>
      <point x="115" y="65" type="line"/>
      <point x="70" y="48"/>
      <point x="38" y="21"/>
      <point x="38" y="-28" type="curve" smooth="yes"/>
      <point x="38" y="-85"/>
      <point x="83" y="-125"/>
      <point x="165" y="-125" type="curve" smooth="yes"/>
      <point x="251" y="-125"/>
      <point x="307" y="-83"/>
      <point x="307" y="-12" type="curve" smooth="yes"/>
      <point x="307" y="39"/>
      <point x="272" y="61"/>
      <point x="234" y="79" type="curve"/>
      <point x="234" y="84" type="line"/>
      <point x="272" y="104"/>
      <point x="296" y="131"/>
      <point x="296" y="173" type="curve" smooth="yes"/>
      <point x="296" y="230"/>
      <point x="254" y="267"/>
      <point x="182" y="267" type="curve" smooth="yes"/>
    </contour>
    <contour>
      <point x="203" y="30"/>
      <point x="237" y="16"/>
      <point x="237" y="-19" type="curve" smooth="yes"/>
      <point x="237" y="-47"/>
      <point x="215" y="-70"/>
      <point x="173" y="-70" type="curve" smooth="yes"/>
      <point x="132" y="-70"/>
      <point x="110" y="-49"/>
      <point x="110" y="-17" type="curve" smooth="yes"/>
      <point x="110" y="18"/>
      <point x="136" y="33"/>
      <point x="167" y="44" type="curve"/>
    </contour>
    <contour>
      <point x="208" y="210"/>
      <point x="228" y="192"/>
      <point x="228" y="164" type="curve" smooth="yes"/>
      <point x="228" y="133"/>
      <point x="207" y="117"/>
      <point x="182" y="103" type="curve"/>
      <point x="150" y="116"/>
      <point x="123" y="131"/>
      <point x="123" y="162" type="curve" smooth="yes"/>
      <point x="123" y="192"/>
      <point x="142" y="210"/>
      <point x="177" y="210" type="curve" smooth="yes"/>
    </contour>
  </outline>
</glyph>
<glyph name="eight.tosf" format="1">
  <advance width="475"/>
  <outline>
    <contour>
      <point x="138" y="593"/>
      <point x="64" y="534"/>
      <point x="64" y="435" type="curve" smooth="yes"/>
      <point x="64" y="360"/>
      <point x="109" y="321"/>
      <point x="162" y="295" type="curve"/>
      <point x="162" y="290" type="line"/>
      <point x="97" y="264"/>
      <point x="42" y="222"/>
      <point x="42" y="143" type="curve" smooth="yes"/>
      <point x="42" y="55"/>
      <point x="108" y="-8"/>
      <point x="225" y="-8" type="curve" smooth="yes"/>
      <point x="346" y="-8"/>
      <point x="426" y="57"/>
      <point x="426" y="161" type="curve" smooth="yes"/>
      <point x="426" y="244"/>
      <point x="369" y="279"/>
      <point x="308" y="306" type="curve"/>
      <point x="308" y="312" type="line"/>
      <point x="366" y="341"/>
      <point x="409" y="381"/>
      <point x="409" y="451" type="curve" smooth="yes"/>
      <point x="409" y="539"/>
      <point x="347" y="593"/>
      <point x="247" y="593" type="curve" smooth="yes"/>
    </contour>
    <contour>
      <point x="286" y="238"/>
      <point x="342" y="216"/>
      <point x="342" y="154" type="curve" smooth="yes"/>
      <point x="342" y="102"/>
      <point x="303" y="63"/>
      <point x="234" y="63" type="curve" smooth="yes"/>
      <point x="168" y="63"/>
      <point x="129" y="100"/>
      <point x="129" y="155" type="curve" smooth="yes"/>
      <point x="129" y="217"/>
      <point x="176" y="243"/>
      <point x="228" y="262" type="curve"/>
    </contour>
    <contour>
      <point x="295" y="521"/>
      <point x="327" y="491"/>
      <point x="327" y="441" type="curve" smooth="yes"/>
      <point x="327" y="385"/>
      <point x="289" y="358"/>
      <point x="243" y="337" type="curve"/>
      <point x="193" y="357"/>
      <point x="148" y="381"/>
      <point x="148" y="438" type="curve" smooth="yes"/>
      <point x="148" y="489"/>
      <point x="184" y="521"/>
      <point x="241" y="521" type="curve" smooth="yes"/>
    </contour>
  </outline>
</glyph>
<glyph name="f.l" format="1">
  <advance width="334"/>
  <outline>
    <contour>
      <point x="176" y="711"/>
      <point x="102" y="646"/>
      <point x="103" y="522" type="curve"/>
      <point x="107" y="193" type="line"/>
      <point x="101" y="0" type="line"/>
      <point x="203" y="0" type="line"/>
      <point x="196" y="201" type="line"/>
      <point x="201" y="537" type="line"/>
      <point x="202" y="608"/>
      <point x="239" y="638"/>
      <point x="299" y="638" type="curve" smooth="yes"/>
      <point x="339" y="638"/>
      <point x="380" y="628"/>
      <point x="430" y="607" type="curve"/>
      <point x="437" y="613" type="line"/>
      <point x="458" y="689" type="line"/>
      <point x="403" y="704"/>
      <point x="353" y="711"/>
      <point x="305" y="711" type="curve" smooth="yes"/>
    </contour>
    <contour>
      <point x="37" y="459" type="line"/>
      <point x="32" y="400" type="line"/>
      <point x="36" y="394" type="line"/>
      <point x="315" y="394" type="line"/>
      <point x="321" y="452" type="line"/>
      <point x="317" y="459" type="line"/>
    </contour>
  </outline>
</glyph>
<glyph name="f.sups" format="1">
  <advance width="199"/>
  <outline>
    <contour>
      <point x="119" y="803"/>
      <point x="71" y="760"/>
      <point x="71" y="679" type="curve"/>
      <point x="74" y="461" type="line"/>
      <point x="70" y="335" type="line"/>
      <point x="155" y="335" type="line"/>
      <point x="152" y="470" type="line"/>
      <point x="153" y="694" type="line"/>
      <point x="153" y="728"/>
      <point x="169" y="742"/>
      <point x="194" y="742" type="curve" smooth="yes"/>
      <point x="208" y="742"/>
      <point x="224" y="739"/>
      <point x="246" y="729" type="curve"/>
      <point x="253" y="735" type="line"/>
      <point x="257" y="797" type="line"/>
      <point x="238" y="801"/>
      <point x="221" y="803"/>
      <point x="203" y="803" type="curve" smooth="yes"/>
    </contour>
    <contour>
      <point x="28" y="641" type="line"/>
      <point x="25" y="595" type="line"/>
      <point x="28" y="590" type="line"/>
      <point x="224" y="590" type="line"/>
      <point x="227" y="637" type="line"/>
      <point x="225" y="641" type="line"/>
    </contour>
  </outline>
</glyph>
<glyph name="five.dnom" format="1">
  <advance width="311"/>
  <outline>
    <contour>
      <point x="204" y="382" type="line"/>
      <point x="104" y="382" type="line"/>
      <point x="66" y="383" type="line"/>
      <point x="56" y="373" type="line"/>
      <point x="55" y="192" type="line"/>
      <point x="59" y="185" type="line"/>
      <point x="124" y="174" type="line" smooth="yes"/>
      <point x="170" y="164"/>
      <point x="189" y="147"/>
      <point x="189" y="119" type="curve" smooth="yes"/>
      <point x="189" y="81"/>
      <point x="158" y="58"/>
      <point x="105" y="58" type="curve" smooth="yes"/>
      <point x="81" y="58"/>
      <point x="57" y="60"/>
      <point x="32" y="68" type="curve"/>
      <point x="26" y="61" type="line"/>
      <point x="31" y="2" type="line"/>
      <point x="54" y="-2"/>
      <point x="83" y="-5"/>
      <point x="104" y="-5" type="curve" smooth="yes"/>
      <point x="205" y="-5"/>
      <point x="273" y="46"/>
      <point x="273" y="127" type="curve" smooth="yes"/>
      <point x="273" y="183"/>
      <point x="238" y="217"/>
      <point x="162" y="232" type="curve" smooth="yes"/>
      <point x="121" y="242" type="line"/>
      <point x="123" y="316" type="line"/>
      <point x="204" y="316" type="line"/>
      <point x="260" y="311" type="line"/>
      <point x="267" y="316" type="line"/>
      <point x="275" y="380" type="line"/>
      <point x="270" y="384" type="line"/>
    </contour>
  </outline>
</glyph>
<glyph name="five.tosf" format="1">
  <advance width="475"/>
  <outline>
    <contour>
      <point x="322" y="501" type="line"/>
      <point x="164" y="501" type="line"/>
      <point x="105" y="504" type="line"/>
      <point x="91" y="490" type="line"/>
      <point x="85" y="220" type="line"/>
      <point x="93" y="212" type="line"/>
      <point x="189" y="194" type="line" smooth="yes"/>
      <point x="279" y="176"/>
      <point x="320" y="147"/>
      <point x="320" y="97" type="curve" smooth="yes"/>
      <point x="320" y="26"/>
      <point x="254" y="-18"/>
      <point x="152" y="-18" type="curve" smooth="yes"/>
      <point x="119" y="-18"/>
      <point x="84" y="-15"/>
      <point x="47" y="-6" type="curve"/>
      <point x="39" y="-14" type="line"/>
      <point x="45" y="-87" type="line"/>
      <point x="79" y="-93"/>
      <point x="120" y="-98"/>
      <point x="149" y="-98" type="curve" smooth="yes"/>
      <point x="309" y="-98"/>
      <point x="416" y="-16"/>
      <point x="416" y="106" type="curve" smooth="yes"/>
      <point x="416" y="192"/>
      <point x="358" y="242"/>
      <point x="233" y="268" type="curve" smooth="yes"/>
      <point x="164" y="282" type="line"/>
      <point x="169" y="422" type="line"/>
      <point x="328" y="422" type="line"/>
      <point x="404" y="414" type="line"/>
      <point x="412" y="421" type="line"/>
      <point x="423" y="499" type="line"/>
      <point x="417" y="506" type="line"/>
    </contour>
  </outline>
</glyph>
<glyph name="four.dnom" format="1">
  <advance width="358"/>
  <outline>
    <contour>
      <point x="187" y="382" type="line"/>
      <point x="24" y="153" type="line"/>
      <point x="24" y="100" type="line"/>
      <point x="30" y="92" type="line"/>
      <point x="87" y="95" type="line"/>
      <point x="249" y="95" type="line"/>
      <point x="322" y="92" type="line"/>
      <point x="326" y="151" type="line"/>
      <point x="321" y="158" type="line"/>
      <point x="99" y="158" type="line"/>
      <point x="190" y="288" type="line"/>
      <point x="196" y="288" type="line"/>
      <point x="196" y="141" type="line"/>
      <point x="193" y="1" type="line"/>
      <point x="198" y="-3" type="line"/>
      <point x="266" y="0" type="line"/>
      <point x="271" y="6" type="line"/>
      <point x="265" y="127" type="line"/>
      <point x="267" y="382" type="line"/>
    </contour>
  </outline>
</glyph>
<glyph name="four.tf" format="1">
  <advance width="475"/>
  <outline>
    <contour>
      <point x="261" y="586" type="line"/>
      <point x="22" y="229" type="line"/>
      <point x="22" y="164" type="line"/>
      <point x="29" y="155" type="line"/>
      <point x="102" y="157" type="line"/>
      <point x="341" y="157" type="line"/>
      <point x="438" y="155" type="line"/>
      <point x="444" y="226" type="line"/>
      <point x="437" y="236" type="line"/>
      <point x="111" y="236" type="line"/>
      <point x="262" y="467" type="line"/>
      <point x="270" y="467" type="line"/>
      <point x="270" y="214" type="line"/>
      <point x="266" y="1" type="line"/>
      <point x="272" y="-6" type="line"/>
      <point x="351" y="0" type="line"/>
      <point x="357" y="8" type="line"/>
      <point x="351" y="197" type="line"/>
      <point x="354" y="586" type="line"/>
    </contour>
  </outline>
</glyph>
<glyph name="g.sups" format="1">
  <advance width="336"/>
  <outline>
    <contour>
      <point x="93" y="450" type="line"/>
      <point x="74" y="437"/>
      <point x="58" y="423"/>
      <point x="48" y="408" type="curve"/>
      <point x="47" y="305"/>
      <point x="244" y="359"/>
      <point x="244" y="299" type="curve" smooth="yes"/>
      <point x="244" y="271"/>
      <point x="214" y="254"/>
      <point x="173" y="254" type="curve" smooth="yes"/>
      <point x="132" y="254"/>
      <point x="109" y="271"/>
      <point x="109" y="295" type="curve" smooth="yes"/>
      <point x="109" y="314"/>
      <point x="124" y="327"/>
      <point x="145" y="340" type="curve"/>
      <point x="96" y="354" type="line"/>
      <point x="96" y="344" type="line"/>
      <point x="69" y="329"/>
      <point x="45" y="311"/>
      <point x="40" y="289" type="curve"/>
      <point x="40" y="241"/>
      <point x="85" y="205"/>
      <point x="166" y="205" type="curve" smooth="yes"/>
      <point x="256" y="205"/>
      <point x="318" y="250"/>
      <point x="318" y="313" type="curve" smooth="yes"/>
      <point x="318" y="425"/>
      <point x="118" y="377"/>
      <point x="118" y="421" type="curve" smooth="yes"/>
      <point x="118" y="429"/>
      <point x="121" y="433"/>
      <point x="135" y="444" type="curve"/>
      <point x="93" y="458" type="line"/>
    </contour>
    <contour>
      <point x="211" y="595"/>
      <point x="230" y="578"/>
      <point x="230" y="543" type="curve" smooth="yes"/>
      <point x="230" y="506"/>
      <point x="210" y="488"/>
      <point x="174" y="488" type="curve" smooth="yes"/>
      <point x="138" y="488"/>
      <point x="120" y="506"/>
      <point x="120" y="542" type="curve" smooth="yes"/>
      <point x="120" y="577"/>
      <point x="139" y="595"/>
      <point x="176" y="595" type="curve" smooth="yes"/>
    </contour>
    <contour>
      <point x="94" y="649"/>
      <point x="44" y="608"/>
      <point x="44" y="541" type="curve" smooth="yes"/>
      <point x="44" y="475"/>
      <point x="92" y="436"/>
      <point x="172" y="436" type="curve" smooth="yes"/>
      <point x="254" y="436"/>
      <point x="305" y="477"/>
      <point x="305" y="545" type="curve" smooth="yes"/>
      <point x="305" y="605"/>
      <point x="253" y="649"/>
      <point x="176" y="649" type="curve" smooth="yes"/>
    </contour>
    <contour>
      <point x="309" y="652"/>
      <point x="273" y="639"/>
      <point x="240" y="634" type="curve"/>
      <point x="286" y="579" type="line"/>
      <point x="293" y="594" type="line"/>
      <point x="311" y="596"/>
      <point x="325" y="598"/>
      <point x="344" y="602" type="curve"/>
      <point x="344" y="658" type="line"/>
      <point x="337" y="662" type="line"/>
    </contour>
    <contour>
      <point x="188" y="302" type="move" name="top"/>
    </contour>
  </outline>
</glyph>
<glyph name="k.sups" format="1">
  <advance width="316"/>
  <outline>
    <contour>
      <point x="219" y="644" type="line"/>
      <point x="204" y="611" type="line"/>
      <point x="130" y="502" type="line"/>
      <point x="130" y="496" type="line"/>
      <point x="158" y="440"/>
      <point x="191" y="385"/>
      <point x="226" y="332" type="curve"/>
      <point x="235" y="328" type="line"/>
      <point x="262" y="332"/>
      <point x="288" y="334"/>
      <point x="314" y="339" type="curve"/>
      <point x="315" y="349" type="line"/>
      <point x="280" y="401"/>
      <point x="243" y="452"/>
      <point x="213" y="504" type="curve"/>
      <point x="308" y="644" type="line"/>
    </contour>
    <contour>
      <point x="46" y="796" type="line"/>
      <point x="49" y="462" type="line"/>
      <point x="45" y="335" type="line"/>
      <point x="131" y="335" type="line"/>
      <point x="127" y="470" type="line"/>
      <point x="131" y="801" type="line"/>
    </contour>
    <contour>
      <point x="181" y="0" type="move" name="bottom"/>
    </contour>
  </outline>
</glyph>
<glyph name="macron.i" format="1">
  <advance width="389"/>
  <outline>
    <contour>
      <point x="85" y="645" type="line"/>
      <point x="79" y="587" type="line"/>
      <point x="86" y="579" type="line"/>
      <point x="307" y="579" type="line"/>
      <point x="311" y="638" type="line"/>
      <point x="304" y="645" type="line"/>
    </contour>
    <contour>
      <point x="195" y="461" type="move" name="_top"/>
    </contour>
  </outline>
</glyph>
<glyph name="n.sups" format="1">
  <advance width="350"/>
  <outline>
    <contour>
      <point x="186" y="644"/>
      <point x="157" y="623"/>
      <point x="132" y="597" type="curve"/>
      <point x="117" y="597" type="line"/>
      <point x="117" y="543" type="line"/>
      <point x="140" y="567"/>
      <point x="165" y="578"/>
      <point x="185" y="578" type="curve" smooth="yes"/>
      <point x="215" y="578"/>
      <point x="232" y="560"/>
      <point x="232" y="524" type="curve"/>
      <point x="226" y="335" type="line"/>
      <point x="312" y="335" type="line"/>
      <point x="310" y="470" type="line"/>
      <point x="311" y="558" type="line" smooth="yes"/>
      <point x="312" y="616"/>
      <point x="279" y="646"/>
      <point x="218" y="646" type="curve"/>
    </contour>
    <contour>
      <point x="46" y="638" type="line"/>
      <point x="49" y="462" type="line"/>
      <point x="45" y="335" type="line"/>
      <point x="131" y="335" type="line"/>
      <point x="128" y="470" type="line"/>
      <point x="128" y="645" type="line"/>
    </contour>
    <contour>
      <point x="188" y="0" type="move" name="bottom"/>
    </contour>
    <contour>
      <point x="197" y="307" type="move" name="top"/>
    </contour>
  </outline>
</glyph>
<glyph name="nine.sinf" format="1">
  <advance width="343"/>
  <outline>
    <contour>
      <point x="81" y="268"/>
      <point x="35" y="209"/>
      <point x="35" y="140" type="curve"/>
      <point x="35" y="78"/>
      <point x="76" y="27"/>
      <point x="147" y="27" type="curve" smooth="yes"/>
      <point x="171" y="27"/>
      <point x="195" y="35"/>
      <point x="214" y="47" type="curve"/>
      <point x="230" y="31" type="line"/>
      <point x="241" y="111" type="line"/>
      <point x="218" y="95"/>
      <point x="196" y="86"/>
      <point x="171" y="86" type="curve" smooth="yes"/>
      <point x="133" y="86"/>
      <point x="113" y="108"/>
      <point x="113" y="148" type="curve"/>
      <point x="113" y="191"/>
      <point x="134" y="214"/>
      <point x="174" y="214" type="curve"/>
      <point x="219" y="214"/>
      <point x="234" y="181"/>
      <point x="234" y="121" type="curve"/>
      <point x="234" y="19"/>
      <point x="189" y="-33"/>
      <point x="60" y="-80" type="curve"/>
      <point x="60" y="-89" type="line"/>
      <point x="113" y="-125" type="line"/>
      <point x="118" y="-125" type="line"/>
      <point x="242" y="-73"/>
      <point x="312" y="15"/>
      <point x="312" y="121" type="curve"/>
      <point x="312" y="213"/>
      <point x="261" y="268"/>
      <point x="175" y="268" type="curve"/>
    </contour>
  </outline>
</glyph>
<glyph name="nine.tf" format="1">
  <advance width="475"/>
  <outline>
    <contour>
      <point x="116" y="595"/>
      <point x="44" y="511"/>
      <point x="44" y="404" type="curve"/>
      <point x="44" y="305"/>
      <point x="103" y="233"/>
      <point x="206" y="233" type="curve" smooth="yes"/>
      <point x="250" y="233"/>
      <point x="289" y="247"/>
      <point x="323" y="270" type="curve"/>
      <point x="341" y="249" type="line"/>
      <point x="356" y="358" type="line"/>
      <point x="318" y="325"/>
      <point x="277" y="306"/>
      <point x="235" y="306" type="curve" smooth="yes"/>
      <point x="171" y="306"/>
      <point x="135" y="346"/>
      <point x="135" y="418" type="curve"/>
      <point x="135" y="489"/>
      <point x="175" y="527"/>
      <point x="239" y="527" type="curve"/>
      <point x="316" y="527"/>
      <point x="346" y="475"/>
      <point x="346" y="373" type="curve"/>
      <point x="346" y="212"/>
      <point x="268" y="121"/>
      <point x="64" y="48" type="curve"/>
      <point x="64" y="38" type="line"/>
      <point x="140" y="-8" type="line"/>
      <point x="146" y="-8" type="line"/>
      <point x="331" y="69"/>
      <point x="438" y="207"/>
      <point x="438" y="374" type="curve"/>
      <point x="438" y="513"/>
      <point x="373" y="595"/>
      <point x="246" y="595" type="curve"/>
    </contour>
  </outline>
</glyph>
<glyph name="nine.tosf" format="1">
  <advance width="475"/>
  <outline>
    <contour>
      <point x="106" y="510"/>
      <point x="39" y="425"/>
      <point x="39" y="318" type="curve"/>
      <point x="39" y="219"/>
      <point x="98" y="147"/>
      <point x="203" y="147" type="curve" smooth="yes"/>
      <point x="246" y="147"/>
      <point x="286" y="162"/>
      <point x="319" y="184" type="curve"/>
      <point x="339" y="164" type="line"/>
      <point x="352" y="266" type="line"/>
      <point x="315" y="238"/>
      <point x="273" y="220"/>
      <point x="231" y="220" type="curve" smooth="yes"/>
      <point x="166" y="220"/>
      <point x="130" y="257"/>
      <point x="130" y="327" type="curve"/>
      <point x="130" y="401"/>
      <point x="168" y="441"/>
      <point x="238" y="441" type="curve"/>
      <point x="312" y="441"/>
      <point x="342" y="386"/>
      <point x="342" y="287" type="curve"/>
      <point x="342" y="126"/>
      <point x="265" y="35"/>
      <point x="74" y="-37" type="curve"/>
      <point x="74" y="-48" type="line"/>
      <point x="135" y="-94" type="line"/>
      <point x="141" y="-94" type="line"/>
      <point x="327" y="-17"/>
      <point x="434" y="121"/>
      <point x="434" y="289" type="curve"/>
      <point x="434" y="428"/>
      <point x="362" y="510"/>
      <point x="240" y="510" type="curve"/>
    </contour>
  </outline>
</glyph>
<glyph name="o.sups" format="1">
  <advance width="342"/>
  <outline>
    <contour>
      <point x="80" y="650"/>
      <point x="28" y="592"/>
      <point x="28" y="484" type="curve" smooth="yes"/>
      <point x="28" y="383"/>
      <point x="77" y="328"/>
      <point x="167" y="328" type="curve" smooth="yes"/>
      <point x="263" y="328"/>
      <point x="315" y="387"/>
      <point x="315" y="494" type="curve" smooth="yes"/>
      <point x="315" y="595"/>
      <point x="267" y="650"/>
      <point x="176" y="650" type="curve" smooth="yes"/>
    </contour>
    <contour>
      <point x="215" y="590"/>
      <point x="236" y="560"/>
      <point x="236" y="484" type="curve" smooth="yes"/>
      <point x="236" y="414"/>
      <point x="215" y="386"/>
      <point x="172" y="386" type="curve" smooth="yes"/>
      <point x="129" y="386"/>
      <point x="109" y="417"/>
      <point x="109" y="493" type="curve" smooth="yes"/>
      <point x="109" y="562"/>
      <point x="128" y="590"/>
      <point x="172" y="590" type="curve" smooth="yes"/>
    </contour>
    <contour>
      <point x="182" y="307" type="move" name="top"/>
    </contour>
  </outline>
</glyph>
<glyph name="puso.cap" format="1">
  <advance width="129"/>
  <outline>
    <contour>
      <point x="69" y="153" type="move"/>
    </contour>
    <component base="quotesingle" xOffset="-28" yOffset="-268" yScale="1.38"/>
  </outline>
</glyph>
<glyph name="seven.tf" format="1">
  <advance width="475"/>
  <outline>
    <contour>
      <point x="35" y="505" type="line"/>
      <point x="41" y="495" type="line"/>
      <point x="126" y="501" type="line"/>
      <point x="333" y="501" type="line"/>
      <point x="96" y="28" type="line"/>
      <point x="102" y="12" type="line"/>
      <point x="184" y="-11" type="line"/>
      <point x="238" y="120" type="line"/>
      <point x="432" y="513" type="line"/>
      <point x="432" y="587" type="line"/>
      <point x="384" y="586" type="line"/>
      <point x="145" y="586" type="line"/>
      <point x="42" y="588" type="line"/>
    </contour>
  </outline>
</glyph>
<glyph name="six.tf" format="1">
  <advance width="475"/>
  <outline>
    <contour>
      <point x="332" y="595" type="line"/>
      <point x="147" y="518"/>
      <point x="40" y="380"/>
      <point x="40" y="212" type="curve"/>
      <point x="40" y="74"/>
      <point x="104" y="-9"/>
      <point x="232" y="-9" type="curve"/>
      <point x="362" y="-9"/>
      <point x="434" y="76"/>
      <point x="434" y="183" type="curve"/>
      <point x="434" y="282"/>
      <point x="375" y="354"/>
      <point x="272" y="354" type="curve" smooth="yes"/>
      <point x="228" y="354"/>
      <point x="189" y="340"/>
      <point x="155" y="317" type="curve"/>
      <point x="137" y="338" type="line"/>
      <point x="122" y="229" type="line"/>
      <point x="160" y="262"/>
      <point x="201" y="281"/>
      <point x="243" y="281" type="curve" smooth="yes"/>
      <point x="307" y="281"/>
      <point x="343" y="241"/>
      <point x="343" y="169" type="curve"/>
      <point x="343" y="98"/>
      <point x="303" y="60"/>
      <point x="239" y="60" type="curve"/>
      <point x="162" y="60"/>
      <point x="132" y="112"/>
      <point x="132" y="214" type="curve"/>
      <point x="132" y="375"/>
      <point x="210" y="466"/>
      <point x="414" y="539" type="curve"/>
      <point x="414" y="549" type="line"/>
      <point x="338" y="595" type="line"/>
    </contour>
  </outline>
</glyph>
<glyph name="square1" format="1">
  <advance width="455"/>
  <outline>
    <contour>
      <point x="0" y="456" type="line"/>
      <point x="0" y="0" type="line"/>
      <point x="456" y="0" type="line"/>
      <point x="456" y="456" type="line"/>
    </contour>
  </outline>
</glyph>
<glyph name="t.sups" format="1">
  <advance width="220"/>
  <outline>
    <contour>
      <point x="56" y="709" type="line"/>
      <point x="56" y="485" type="line"/>
      <point x="55" y="415" type="line" smooth="yes"/>
      <point x="54" y="363"/>
      <point x="88" y="331"/>
      <point x="146" y="331" type="curve"/>
      <point x="165" y="332"/>
      <point x="189" y="342"/>
      <point x="207" y="352" type="curve"/>
      <point x="215" y="400" type="line"/>
      <point x="209" y="408" type="line"/>
      <point x="197" y="401"/>
      <point x="182" y="398"/>
      <point x="171" y="398" type="curve" smooth="yes"/>
      <point x="146" y="398"/>
      <point x="135" y="414"/>
      <point x="135" y="447" type="curve"/>
      <point x="141" y="722" type="line"/>
      <point x="135" y="727" type="line"/>
    </contour>
    <contour>
      <point x="17" y="641" type="line"/>
      <point x="14" y="595" type="line"/>
      <point x="17" y="590" type="line"/>
      <point x="212" y="590" type="line"/>
      <point x="216" y="637" type="line"/>
      <point x="214" y="641" type="line"/>
    </contour>
    <contour>
      <point x="136" y="0" type="move" name="bottom"/>
    </contour>
    <contour>
      <point x="123" y="154" type="move" name="center"/>
    </contour>
  </outline>
</glyph>
<glyph name="three.dnom" format="1">
  <advance width="313"/>
  <outline>
    <contour>
      <point x="105" y="387"/>
      <point x="63" y="374"/>
      <point x="26" y="348" type="curve"/>
      <point x="40" y="291" type="line"/>
      <point x="49" y="291" type="line"/>
      <point x="78" y="310"/>
      <point x="102" y="320"/>
      <point x="127" y="320" type="curve" smooth="yes"/>
      <point x="156" y="320"/>
      <point x="174" y="306"/>
      <point x="174" y="281" type="curve" smooth="yes"/>
      <point x="174" y="249"/>
      <point x="140" y="226"/>
      <point x="109" y="225" type="curve" smooth="yes"/>
      <point x="79" y="225" type="line"/>
      <point x="77" y="168" type="line"/>
      <point x="82" y="163" type="line"/>
      <point x="129" y="163" type="line"/>
      <point x="169" y="162"/>
      <point x="190" y="144"/>
      <point x="190" y="114" type="curve" smooth="yes"/>
      <point x="190" y="79"/>
      <point x="160" y="59"/>
      <point x="109" y="59" type="curve" smooth="yes"/>
      <point x="87" y="59"/>
      <point x="62" y="62"/>
      <point x="37" y="69" type="curve"/>
      <point x="30" y="63" type="line"/>
      <point x="36" y="3" type="line"/>
      <point x="58" y="-2"/>
      <point x="86" y="-5"/>
      <point x="108" y="-5" type="curve" smooth="yes"/>
      <point x="207" y="-5"/>
      <point x="273" y="42"/>
      <point x="273" y="112" type="curve" smooth="yes"/>
      <point x="273" y="158"/>
      <point x="249" y="189"/>
      <point x="200" y="202" type="curve"/>
      <point x="200" y="206" type="line"/>
      <point x="244" y="228"/>
      <point x="261" y="266"/>
      <point x="261" y="297" type="curve" smooth="yes"/>
      <point x="261" y="352"/>
      <point x="215" y="387"/>
      <point x="145" y="387" type="curve" smooth="yes"/>
    </contour>
  </outline>
</glyph>
<glyph name="u.sups" format="1">
  <advance width="349"/>
  <outline>
    <contour>
      <point x="221" y="638" type="line"/>
      <point x="221" y="429" type="line"/>
      <point x="202" y="409"/>
      <point x="184" y="400"/>
      <point x="162" y="400" type="curve" smooth="yes"/>
      <point x="136" y="400"/>
      <point x="120" y="416"/>
      <point x="120" y="452" type="curve" smooth="yes"/>
      <point x="120" y="645" type="line"/>
      <point x="39" y="638" type="line"/>
      <point x="41" y="485" type="line"/>
      <point x="40" y="420" type="line" smooth="yes"/>
      <point x="40" y="364"/>
      <point x="73" y="332"/>
      <point x="133" y="332" type="curve"/>
      <point x="165" y="334"/>
      <point x="194" y="354"/>
      <point x="219" y="383" type="curve"/>
      <point x="223" y="383" type="line"/>
      <point x="233" y="345"/>
      <point x="250" y="330"/>
      <point x="281" y="330" type="curve" smooth="yes"/>
      <point x="298" y="330"/>
      <point x="315" y="336"/>
      <point x="329" y="345" type="curve"/>
      <point x="338" y="392" type="line"/>
      <point x="331" y="397" type="line"/>
      <point x="325" y="393"/>
      <point x="319" y="392"/>
      <point x="313" y="392" type="curve" smooth="yes"/>
      <point x="303" y="392"/>
      <point x="298" y="400"/>
      <point x="298" y="417" type="curve" smooth="yes"/>
      <point x="302" y="645" type="line"/>
    </contour>
    <contour>
      <point x="327" y="6" type="move" name="ogonek"/>
    </contour>
    <contour>
      <point x="182" y="307" type="move" name="top"/>
    </contour>
  </outline>
</glyph>
<glyph name="uni0066006A" format="1">
  <advance width="583"/>
  <outline>
    <contour>
      <point x="167" y="704"/>
      <point x="104" y="643"/>
      <point x="104" y="510" type="curve"/>
      <point x="105" y="459" type="line"/>
      <point x="37" y="459" type="line"/>
      <point x="32" y="400" type="line"/>
      <point x="36" y="394" type="line"/>
      <point x="105" y="394" type="line"/>
      <point x="107" y="194" type="line"/>
      <point x="101" y="0" type="line"/>
      <point x="203" y="0" type="line"/>
      <point x="196" y="203" type="line"/>
      <point x="199" y="394" type="line"/>
      <point x="407" y="394" type="line"/>
      <point x="411" y="193" type="line"/>
      <point x="409" y="18" type="line" smooth="yes"/>
      <point x="409" y="-59"/>
      <point x="385" y="-100"/>
      <point x="318" y="-138" type="curve"/>
      <point x="318" y="-149" type="line"/>
      <point x="355" y="-194" type="line"/>
      <point x="463" y="-142"/>
      <point x="505" y="-83"/>
      <point x="505" y="22" type="curve"/>
      <point x="500" y="202" type="line"/>
      <point x="507" y="463" type="line"/>
      <point x="499" y="466" type="line"/>
      <point x="442" y="459" type="line"/>
      <point x="200" y="459" type="line"/>
      <point x="201" y="530" type="line" smooth="yes"/>
      <point x="202" y="600"/>
      <point x="231" y="631"/>
      <point x="295" y="631" type="curve" smooth="yes"/>
      <point x="333" y="631"/>
      <point x="369" y="620"/>
      <point x="414" y="599" type="curve"/>
      <point x="425" y="603" type="line"/>
      <point x="438" y="685" type="line"/>
      <point x="389" y="698"/>
      <point x="351" y="704"/>
      <point x="306" y="704" type="curve" smooth="yes"/>
    </contour>
  </outline>
</glyph>
<glyph name="w.sups" format="1">
  <advance width="463"/>
  <outline>
    <contour>
      <point x="12" y="642" type="line"/>
      <point x="92" y="335" type="line"/>
      <point x="177" y="335" type="line"/>
      <point x="232" y="535" type="line"/>
      <point x="240" y="535" type="line"/>
      <point x="287" y="335" type="line"/>
      <point x="369" y="335" type="line"/>
      <point x="465" y="644" type="line"/>
      <point x="392" y="644" type="line"/>
      <point x="381" y="593" type="line"/>
      <point x="335" y="425" type="line"/>
      <point x="330" y="425" type="line"/>
      <point x="291" y="598" type="line"/>
      <point x="284" y="644" type="line"/>
      <point x="199" y="644" type="line"/>
      <point x="189" y="593" type="line"/>
      <point x="142" y="423" type="line"/>
      <point x="138" y="423" type="line"/>
      <point x="98" y="598" type="line"/>
      <point x="91" y="646" type="line"/>
    </contour>
    <contour>
      <point x="246" y="307" type="move" name="top"/>
    </contour>
  </outline>
</glyph>
<glyph name="y.sups" format="1">
  <advance width="282"/>
  <outline>
    <contour>
      <point x="-10" y="642" type="line"/>
      <point x="102" y="335" type="line"/>
      <point x="69" y="292"/>
      <point x="35" y="277"/>
      <point x="-16" y="267" type="curve"/>
      <point x="-18" y="258" type="line"/>
      <point x="-9" y="240"/>
      <point x="3" y="222"/>
      <point x="19" y="207" type="curve"/>
      <point x="26" y="207" type="line"/>
      <point x="117" y="236"/>
      <point x="153" y="267"/>
      <point x="184" y="355" type="curve" smooth="yes"/>
      <point x="283" y="644" type="line"/>
      <point x="210" y="644" type="line"/>
      <point x="198" y="590" type="line"/>
      <point x="143" y="422" type="line"/>
      <point x="138" y="422" type="line"/>
      <point x="82" y="598" type="line"/>
      <point x="72" y="646" type="line"/>
    </contour>
    <contour>
      <point x="150" y="307" type="move" name="top"/>
    </contour>
  </outline>
</glyph>
<glyph name="zero.lf" format="1">
  <advance width="527"/>
  <outline>
    <contour>
      <point x="127" y="592"/>
      <point x="48" y="482"/>
      <point x="48" y="286" type="curve" smooth="yes"/>
      <point x="48" y="97"/>
      <point x="123" y="-8"/>
      <point x="258" y="-8" type="curve" smooth="yes"/>
      <point x="400" y="-8"/>
      <point x="478" y="102"/>
      <point x="478" y="299" type="curve" smooth="yes"/>
      <point x="478" y="487"/>
      <point x="404" y="592"/>
      <point x="270" y="592" type="curve" smooth="yes"/>
    </contour>
    <contour>
      <point x="352" y="497"/>
      <point x="398" y="426"/>
      <point x="398" y="287" type="curve" smooth="yes"/>
      <point x="398" y="152"/>
      <point x="352" y="82"/>
      <point x="263" y="82" type="curve" smooth="yes"/>
      <point x="173" y="82"/>
      <point x="127" y="154"/>
      <point x="127" y="293" type="curve" smooth="yes"/>
      <point x="127" y="427"/>
      <point x="172" y="497"/>
      <point x="261" y="497" type="curve" smooth="yes"/>
    </contour>
  </outline>
</glyph>
